<?xml version="1.0" encoding="utf-8"?>
<!-- Generator: Adobe Illustrator 15.1.0, SVG Export Plug-In . SVG Version: 6.00 Build 0)  -->
<!DOCTYPE svg PUBLIC "-//W3C//DTD SVG 1.1//EN" "http://www.w3.org/Graphics/SVG/1.1/DTD/svg11.dtd">
<svg version="1.1" id="Layer_1" xmlns="http://www.w3.org/2000/svg" xmlns:xlink="http://www.w3.org/1999/xlink" x="0px" y="0px"
	 width="158px" height="126px" viewBox="0 0 158 126" enable-background="new 0 0 158 126" xml:space="preserve">
<g>
	<defs>
		<rect id="SVGID_1_" x="1" y="-0.032" width="157.06" height="125.032"/>
	</defs>
	<clipPath id="SVGID_2_">
		<use xlink:href="#SVGID_1_"  overflow="visible"/>
	</clipPath>
	<path clip-path="url(#SVGID_2_)" d="M120.721,53.461l12.166,23.876v11.964h9.793V77.439l12.368-23.978h-10.702l-6.562,15.497
		l-6.41-15.497H120.721z M98.208,62.043h5.956c0.605,0,1.212,0.328,1.817,0.984s0.908,1.607,0.908,2.852
		c0,1.212-0.261,2.154-0.782,2.827c-0.521,0.674-1.086,1.01-1.69,1.01h-6.209V62.043z M98.208,89.302V78.297h3.685l6.311,11.005
		h11.104l-7.572-13.175c1.616-1.144,2.878-2.617,3.786-4.417c0.909-1.8,1.363-3.744,1.363-5.831c0-1.514-0.303-3.02-0.908-4.518
		c-0.605-1.497-1.438-2.827-2.499-3.988c-1.06-1.161-2.331-2.103-3.811-2.827c-1.482-0.723-3.098-1.085-4.848-1.085H88.363v35.84
		H98.208z M61.357,75.724l3.332-11.106l3.18,11.106H61.357z M47.728,89.302h10.045l2.12-7.017h9.541l2.171,7.017H81.6l-12.418-35.84
		h-8.986L47.728,89.302z M40.964,89.302v-35.84H30.262l-7.774,16.86l-7.723-16.86H4.013v35.84h9.843v-18.88l6.007,13.277h5.25
		l6.007-13.277v18.88H40.964z"/>
	<path clip-path="url(#SVGID_2_)" d="M150.484,124.735h4.563v-20.904h-5.741v10.629l-8.392-10.629h-4.475v20.904h5.741V114.46
		L150.484,124.735z M118.878,112.296c0.187-0.658,0.476-1.246,0.868-1.767c0.394-0.521,0.889-0.938,1.487-1.251
		c0.599-0.314,1.31-0.472,2.135-0.472c0.805,0,1.506,0.152,2.105,0.456c0.598,0.306,1.099,0.707,1.501,1.207
		c0.401,0.501,0.702,1.08,0.897,1.737c0.196,0.658,0.295,1.34,0.295,2.047c0,0.688-0.094,1.364-0.279,2.031
		c-0.188,0.668-0.472,1.262-0.854,1.781c-0.383,0.521-0.878,0.942-1.486,1.266c-0.608,0.324-1.324,0.486-2.149,0.486
		c-0.824,0-1.536-0.157-2.134-0.472c-0.6-0.313-1.096-0.726-1.487-1.235c-0.393-0.512-0.688-1.095-0.884-1.752
		c-0.196-0.658-0.294-1.341-0.294-2.046C118.599,113.626,118.691,112.954,118.878,112.296 M127.622,124.028
		c1.306-0.588,2.43-1.369,3.371-2.34c0.942-0.973,1.679-2.092,2.208-3.357c0.53-1.266,0.795-2.585,0.795-3.96
		c0-1.334-0.25-2.639-0.751-3.915c-0.5-1.276-1.212-2.415-2.134-3.416c-0.923-1.001-2.032-1.805-3.327-2.414
		c-1.295-0.608-2.737-0.913-4.328-0.913c-1.551,0-2.979,0.29-4.283,0.869c-1.306,0.579-2.435,1.354-3.387,2.326
		c-0.952,0.971-1.692,2.095-2.223,3.371c-0.529,1.275-0.794,2.601-0.794,3.975c0,1.354,0.254,2.669,0.765,3.945
		c0.51,1.275,1.227,2.41,2.149,3.399c0.923,0.992,2.032,1.792,3.327,2.4c1.296,0.609,2.737,0.913,4.328,0.913
		C124.89,124.912,126.316,124.617,127.622,124.028 M110.886,105.922c-0.472-0.236-1.001-0.486-1.591-0.751
		c-0.589-0.265-1.222-0.51-1.898-0.736c-0.677-0.226-1.379-0.411-2.105-0.56c-0.727-0.147-1.473-0.221-2.237-0.221
		c-1.041,0-2.027,0.152-2.959,0.457c-0.933,0.304-1.763,0.751-2.488,1.339c-0.726,0.589-1.3,1.325-1.722,2.209
		c-0.423,0.883-0.634,1.904-0.634,3.062c0,0.766,0.104,1.442,0.31,2.031s0.524,1.114,0.957,1.575
		c0.431,0.462,0.98,0.874,1.648,1.237c0.667,0.362,1.462,0.701,2.385,1.016c0.628,0.216,1.222,0.402,1.781,0.559
		c0.56,0.157,1.056,0.314,1.486,0.472c0.432,0.156,0.771,0.339,1.016,0.545c0.245,0.206,0.368,0.456,0.368,0.75
		c0,0.275-0.123,0.496-0.368,0.663c-0.244,0.167-0.682,0.25-1.31,0.25c-0.824,0-1.634-0.118-2.429-0.354
		c-0.795-0.236-1.507-0.501-2.135-0.795c-0.746-0.334-1.463-0.716-2.149-1.147l-2.473,5.033c0.628,0.373,1.31,0.707,2.046,1.001
		c0.735,0.295,1.502,0.551,2.297,0.767s1.594,0.383,2.398,0.5c0.806,0.118,1.59,0.177,2.356,0.177c0.961,0,1.918-0.113,2.87-0.339
		s1.806-0.593,2.562-1.104c0.755-0.51,1.364-1.191,1.825-2.046c0.461-0.854,0.692-1.909,0.692-3.165c0-0.98-0.147-1.814-0.442-2.502
		c-0.294-0.687-0.716-1.271-1.266-1.752c-0.55-0.48-1.212-0.897-1.987-1.252c-0.776-0.353-1.644-0.677-2.606-0.971
		c-0.607-0.196-1.152-0.363-1.634-0.501c-0.48-0.137-0.888-0.279-1.221-0.427c-0.334-0.147-0.589-0.31-0.766-0.485
		c-0.178-0.177-0.266-0.402-0.266-0.678c0-0.372,0.152-0.638,0.456-0.794c0.305-0.157,0.712-0.236,1.222-0.236
		c0.628,0,1.271,0.103,1.93,0.309c0.656,0.206,1.251,0.428,1.78,0.663c0.629,0.275,1.237,0.588,1.825,0.942L110.886,105.922z
		 M81.62,108.836h3.475c0.353,0,0.706,0.192,1.06,0.574c0.354,0.383,0.53,0.938,0.53,1.664c0,0.707-0.153,1.256-0.457,1.648
		c-0.304,0.394-0.633,0.588-0.986,0.588H81.62V108.836z M81.62,124.735v-6.418h2.149l3.68,6.418h6.478l-4.416-7.685
		c0.941-0.667,1.678-1.525,2.208-2.577c0.529-1.049,0.795-2.183,0.795-3.399c0-0.883-0.178-1.763-0.53-2.635
		c-0.353-0.873-0.839-1.649-1.457-2.326c-0.619-0.678-1.36-1.228-2.223-1.649c-0.864-0.422-1.807-0.633-2.827-0.633h-9.598v20.904
		H81.62z M64.043,119.73v-3.299h7.596v-4.65h-7.596v-2.945h8.892v-5.005H58.302v20.904H73.2v-5.005H64.043z M56.212,103.831H38.429
		v5.005h6.035v15.899h5.742v-15.899h6.006V103.831z M28.095,119.73v-3.299h7.596v-4.65h-7.596v-2.945h8.891v-5.005H22.354v20.904
		h14.897v-5.005H28.095z M9.753,108.836h2.885c0.354,0,0.707,0.158,1.06,0.471c0.354,0.315,0.53,0.903,0.53,1.768
		c0,0.844-0.152,1.428-0.456,1.752c-0.305,0.324-0.633,0.484-0.986,0.484H9.753V108.836z M9.753,124.735v-6.418h3.415
		c1.021,0,1.958-0.201,2.812-0.604c0.854-0.402,1.58-0.941,2.179-1.619c0.598-0.677,1.064-1.453,1.398-2.326
		s0.501-1.771,0.501-2.693c0-0.883-0.177-1.763-0.53-2.635c-0.354-0.873-0.839-1.649-1.458-2.326
		c-0.618-0.678-1.359-1.228-2.222-1.649c-0.864-0.422-1.807-0.633-2.827-0.633H4.012v20.904H9.753z"/>
	<line clip-path="url(#SVGID_2_)" fill="none" stroke="#000000" stroke-width="5" x1="1" y1="96.479" x2="158.06" y2="96.479"/>
	<path clip-path="url(#SVGID_2_)" d="M79.53-0.032c-0.208,0.446-0.441,0.878-0.698,1.296c-0.538,0.957-0.878,1.797-0.444,2.667
		c0.437,0.627,0.821,1.282,1.142,1.971c0.321-0.689,0.705-1.344,1.142-1.971c0.435-0.87,0.095-1.71-0.443-2.667
		C79.971,0.846,79.738,0.414,79.53-0.032"/>
	<path clip-path="url(#SVGID_2_)" d="M57.039,29.647c2.094,1.252,4.403,2.426,6.751,3.62c5.679,2.884,11.489,5.837,14.594,10.287
		v-2.64c0-7.537-7.587-11.391-15.619-15.47c-3.455-1.755-6.956-3.536-9.869-5.663"/>
	<path clip-path="url(#SVGID_2_)" d="M48.17,27.704c0,7.536,7.587,11.39,15.619,15.47c5.679,2.885,11.489,5.838,14.594,10.288
		v-2.641c0-7.536-7.587-11.39-15.619-15.47c-5.528-2.808-11.177-5.682-14.338-9.936"/>
	<path clip-path="url(#SVGID_2_)" d="M76.466,5.214c-0.068-0.097-0.138-0.193-0.209-0.289c-0.851,1.638-1.934,4.401-0.557,5.926
		c1.025,0.92,1.934,1.906,2.683,2.981v-2.641c0-2.074-0.577-3.869-1.579-5.468C76.676,5.553,76.564,5.383,76.466,5.214"/>
	<path clip-path="url(#SVGID_2_)" d="M74.042,12.461l-0.002,0.002c-0.003-0.004-0.006-0.008-0.01-0.012
		c-1.144-1.008-2.463-1.94-3.898-2.828c-0.62,2.17-1.476,6.412,0.84,7.708v0.001c2.998,1.826,5.643,3.874,7.411,6.407v-2.64
		C78.384,17.533,76.684,14.792,74.042,12.461"/>
	<path clip-path="url(#SVGID_2_)" d="M60.638,14.45c-0.237,0.695-0.485,1.678-0.495,2.775c-0.025,2.692,1.379,4.846,4.174,6.402
		c5.509,2.801,11.057,5.707,14.067,10.02v-2.641c0-5.208-3.625-8.657-8.515-11.638l-0.002,0.004
		c-0.071-0.039-0.134-0.084-0.202-0.126c-2.133-1.286-4.496-2.488-6.901-3.71C62.056,15.176,61.345,14.814,60.638,14.45"/>
	<path clip-path="url(#SVGID_2_)" d="M80.677,50.821v2.64c3.105-4.45,8.915-7.402,14.594-10.287
		c8.032-4.08,15.619-7.934,15.619-15.47c0-0.805-0.091-1.565-0.256-2.29c-3.16,4.255-8.81,7.129-14.338,9.937
		C88.264,39.431,80.677,43.285,80.677,50.821"/>
	<path clip-path="url(#SVGID_2_)" d="M96.296,15.536c-2.404,1.221-4.768,2.423-6.9,3.709c-0.068,0.042-0.131,0.087-0.202,0.127
		l-0.002-0.004c-4.89,2.981-8.514,6.43-8.514,11.638v2.64c3.009-4.312,8.558-7.219,14.065-10.019c2.795-1.556,4.2-3.71,4.174-6.402
		c-0.01-1.097-0.258-2.08-0.495-2.775C97.715,14.815,97.005,15.176,96.296,15.536"/>
	<path clip-path="url(#SVGID_2_)" d="M85.029,12.451c-0.004,0.004-0.006,0.008-0.01,0.012l-0.002-0.002
		c-2.641,2.331-4.341,5.072-4.341,8.638v2.64c1.768-2.533,4.413-4.581,7.411-6.407v-0.001c2.315-1.296,1.46-5.538,0.84-7.707
		C87.492,10.512,86.174,11.443,85.029,12.451"/>
	<path clip-path="url(#SVGID_2_)" d="M96.296,25.443c-8.032,4.08-15.618,7.934-15.618,15.47v2.641
		c3.104-4.45,8.913-7.403,14.593-10.288c2.349-1.193,4.658-2.367,6.752-3.62l-0.002-0.002c4.593-3.067,4.558-7.521,4.145-9.863
		C103.251,21.908,99.75,23.688,96.296,25.443"/>
	<path clip-path="url(#SVGID_2_)" d="M82.595,5.214c-0.099,0.169-0.21,0.339-0.339,0.509c-1.001,1.599-1.579,3.394-1.579,5.468
		v2.641c0.75-1.075,1.659-2.061,2.684-2.981c1.376-1.525,0.294-4.288-0.557-5.926C82.732,5.021,82.662,5.117,82.595,5.214"/>
</g>
</svg>
