<svg xmlns="http://www.w3.org/2000/svg" viewBox="0 0 65.91736 53.63599" width="66px" height="54px"><title>Asset 2</title><path d="M15.33752,25.54321A77.817,77.817,0,0,1,4.9657,19.866a9.1936,9.1936,0,0,0,4.35571,9.88989l-.00146.0022c2.20093,1.25537,4.6272,2.43286,7.09546,3.62939,5.96851,2.89209,12.07422,5.853,15.338,10.31494V41.05444C31.75342,33.49854,23.77942,29.634,15.33752,25.54321Z"/><path d="M16.969,23.72192C22.75867,26.53,28.59045,29.44434,31.7533,33.76831V31.12085c0-5.22241-3.80908-8.68066-8.94885-11.66968l-.0022.00439c-.07458-.03955-.141-.085-.212-.127-2.24194-1.28931-4.72485-2.49463-7.25269-3.719q-1.11676-.542-2.23462-1.0896a8.64348,8.64348,0,0,0-.52075,2.783C12.5564,20.0022,14.03235,22.16162,16.969,23.72192Z"/><path d="M23.96509,17.40942l-.00037.001a25.02182,25.02182,0,0,1,7.78857,6.42432V21.18726c0-3.57544-1.78662-6.32373-4.56213-8.66089l-.00183.00146-.01074-.012a30.30665,30.30665,0,0,0-4.09692-2.835C22.42993,11.85645,21.53064,16.10962,23.96509,17.40942Z"/><path d="M31.7533,13.90063V11.25342A9.75532,9.75532,0,0,0,30.09387,5.771a4.95638,4.95638,0,0,1-.35571-.51074c-.07153-.09717-.14514-.19385-.21973-.28955C28.624,6.613,27.48621,9.3833,28.93274,10.9126A17.79974,17.79974,0,0,1,31.7533,13.90063Z"/><path d="M15.33752,35.47681C9.52832,32.66138,3.59045,29.78027.26843,25.51392A9.8983,9.8983,0,0,0,0,27.80933C0,35.36548,7.974,39.22974,16.41541,43.321c5.96851,2.89258,12.07422,5.853,15.338,10.31494V50.98853C31.75342,43.43213,23.77942,39.56787,15.33752,35.47681Z"/><path d="M33.69226,1.29956A12.74218,12.74218,0,0,1,32.9585,0a12.62729,12.62729,0,0,1-.73376,1.29956c-.5647.96-.92249,1.80176-.46606,2.67432A13.07378,13.07378,0,0,1,32.9585,5.95044a13.06609,13.06609,0,0,1,1.2002-1.97656C34.61475,3.10132,34.25769,2.25952,33.69226,1.29956Z"/><path d="M34.16394,13.90063a17.79733,17.79733,0,0,1,2.82031-2.98779c1.44653-1.52954.30908-4.3-.58533-5.94238-.07458.09619-.14844.19263-.21973.28979a4.98635,4.98635,0,0,1-.356.51074,9.75654,9.75654,0,0,0-1.6593,5.48242Z"/><path d="M34.16394,41.05469v2.64746c3.26367-4.46167,9.36914-7.42261,15.33789-10.31494,2.46826-1.19653,4.895-2.37329,7.09546-3.62915l-.00146-.002A9.19513,9.19513,0,0,0,60.952,19.866a77.82948,77.82948,0,0,1-10.37219,5.67725C42.13794,29.634,34.16394,33.49829,34.16394,41.05469Z"/><path d="M34.16394,23.83472a25.023,25.023,0,0,1,7.78821-6.42432v-.001c2.43445-1.2998,1.53516-5.55322.88306-7.72852a30.35143,30.35143,0,0,0-4.0968,2.835l-.0105.012-.00183-.00146c-2.77551,2.33716-4.56213,5.08545-4.56213,8.66089Z"/><path d="M43.11548,19.45557l-.00256-.00439c-5.13977,2.989-8.949,6.44727-8.949,11.66968v2.64746c3.163-4.324,8.99475-7.23828,14.78442-10.04639,2.93652-1.5603,4.41284-3.71973,4.38672-6.41895a8.64482,8.64482,0,0,0-.52075-2.783q-1.11493.549-2.2345,1.08936c-2.52771,1.22485-5.01086,2.42993-7.25317,3.71948C43.25574,19.37061,43.1897,19.416,43.11548,19.45557Z"/><path d="M65.64929,25.51392c-3.32251,4.26611-9.25977,7.14771-15.06946,9.96313-8.44189,4.09082-16.41589,7.95508-16.41589,15.51147V53.636c3.26367-4.46191,9.36914-7.42285,15.33789-10.31494,8.44153-4.09131,16.41553-7.95557,16.41553-15.51147A9.91378,9.91378,0,0,0,65.64929,25.51392Z"/></svg>
