<svg xmlns="http://www.w3.org/2000/svg" viewBox="0 0 37.75593 30.72145" width="38px" height="31px"><title>Asset 5</title><path d="M8.785,14.63056a44.57179,44.57179,0,0,1-5.94074-3.25179,5.26588,5.26588,0,0,0,2.49485,5.6647l-.00084.00126c1.26064.719,2.65035,1.39349,4.06411,2.07883,3.41862,1.65652,6.91583,3.35248,8.78526,5.90816V23.515C18.18762,19.18718,13.6203,16.97369,8.785,14.63056Z" style="fill:#c9c4be"/><path d="M9.71945,13.58737c3.31619,1.60842,6.6565,3.27766,8.46811,5.75434V17.8253c0-2.99128-2.18175-4.97208-5.1257-6.68412l-.00126.00252c-.04272-.02265-.08076-.04866-.12145-.07272C11.655,10.3325,10.23286,9.64212,8.785,8.94083q-.63965-.31044-1.27994-.6241a4.95078,4.95078,0,0,0-.29827,1.594A4.053,4.053,0,0,0,9.71945,13.58737Z" style="fill:#c9c4be"/><path d="M13.72665,9.97171l-.00021.00056a14.33192,14.33192,0,0,1,4.46111,3.6797v-1.5164a6.357,6.357,0,0,0-2.61308-4.96076l-.001.00084-.00615-.00685A17.35894,17.35894,0,0,0,13.22064,5.545C12.84734,6.7911,12.33225,9.22722,13.72665,9.97171Z" style="fill:#c9c4be"/><path d="M18.18755,7.962V6.4457a5.58762,5.58762,0,0,0-.95048-3.1402,2.8389,2.8389,0,0,1-.20374-.29254c-.041-.05566-.08313-.111-.12585-.16585-.5123.94069-1.164,2.52743-.33547,3.40338A10.19528,10.19528,0,0,1,18.18755,7.962Z" style="fill:#c9c4be"/><path d="M8.785,20.32029C5.4576,18.70768,2.05653,17.05745.15375,14.61378A5.66952,5.66952,0,0,0,0,15.92854c0,4.328,4.56732,6.54135,9.40236,8.88475,3.41862,1.6568,6.91583,3.35248,8.78526,5.90816V29.205C18.18762,24.87692,13.6203,22.66356,8.785,20.32029Z" style="fill:#c9c4be"/><path d="M19.29815.74436A7.29842,7.29842,0,0,1,18.87786,0a7.23262,7.23262,0,0,1-.42028.74436c-.32345.54984-.52838,1.032-.267,1.53179a7.48836,7.48836,0,0,1,.68723,1.13213,7.484,7.484,0,0,1,.68744-1.13213C19.82652,1.77636,19.622,1.2942,19.29815.74436Z" style="fill:#c9c4be"/><path d="M19.56831,7.962a10.1939,10.1939,0,0,1,1.61541-1.71134c.82854-.87609.177-2.463-.33526-3.40366-.04272.0551-.085.11033-.12585.166a2.85606,2.85606,0,0,1-.20388.29254,5.58832,5.58832,0,0,0-.95041,3.1402Z" style="fill:#c9c4be"/><path d="M19.56831,23.51517v1.5164c1.86936-2.55554,5.36643-4.2515,8.78519-5.90816,1.41376-.68535,2.80375-1.35937,4.06411-2.07869l-.00084-.00112a5.26676,5.26676,0,0,0,2.49513-5.66484,44.57892,44.57892,0,0,1-5.941,3.25179C24.13563,16.97369,19.56831,19.187,19.56831,23.51517Z" style="fill:#c9c4be"/><path d="M19.56831,13.652a14.3326,14.3326,0,0,1,4.4609-3.6797V9.97171c1.3944-.7445.8793-3.18076.50579-4.42671a17.3846,17.3846,0,0,0-2.34655,1.6238l-.006.00685-.001-.00084a6.357,6.357,0,0,0-2.61308,4.96076Z" style="fill:#c9c4be"/><path d="M24.69555,11.1437l-.00147-.00252c-2.94394,1.712-5.12577,3.69284-5.12577,6.68412v1.5164c1.81167-2.47667,5.152-4.14592,8.46817-5.75434A4.05268,4.05268,0,0,0,30.5491,9.91074a4.95155,4.95155,0,0,0-.29827-1.594q-.63861.31443-1.27987.624c-1.44781.70157-2.87011,1.39181-4.15445,2.13043C24.77588,11.095,24.73806,11.121,24.69555,11.1437Z" style="fill:#c9c4be"/><path d="M37.60239,14.61378c-1.90306,2.44353-5.30378,4.094-8.63144,5.70665-4.83532,2.34313-9.40264,4.55648-9.40264,8.88461v1.5164c1.86936-2.55568,5.36643-4.25164,8.78519-5.90816,4.83511-2.34341,9.40243-4.55676,9.40243-8.88461A5.67839,5.67839,0,0,0,37.60239,14.61378Z" style="fill:#c9c4be"/></svg>
