<?xml version="1.0" encoding="utf-8"?>
<!-- Generator: Adobe Illustrator 15.1.0, SVG Export Plug-In . SVG Version: 6.00 Build 0)  -->
<!DOCTYPE svg PUBLIC "-//W3C//DTD SVG 1.1//EN" "http://www.w3.org/Graphics/SVG/1.1/DTD/svg11.dtd">
<svg version="1.1" id="Layer_1" xmlns="http://www.w3.org/2000/svg" xmlns:xlink="http://www.w3.org/1999/xlink" x="0px" y="0px"
	 width="63px" height="54px" viewBox="0 0 63 54" enable-background="new 0 0 63 54" xml:space="preserve">
<g>
	<defs>
		<rect id="SVGID_1_" y="0.507" width="62.719" height="53.493"/>
	</defs>
	<clipPath id="SVGID_2_">
		<use xlink:href="#SVGID_1_"  overflow="visible"/>
	</clipPath>
	<path clip-path="url(#SVGID_2_)" fill="#FFFFFF" d="M31.36,0.507c-0.208,0.446-0.441,0.878-0.698,1.296
		C30.124,2.76,29.784,3.6,30.218,4.47c0.437,0.627,0.821,1.282,1.142,1.971c0.321-0.689,0.705-1.344,1.142-1.971
		c0.434-0.87,0.094-1.71-0.444-2.667C31.801,1.385,31.568,0.953,31.36,0.507"/>
	<path clip-path="url(#SVGID_2_)" fill="#FFFFFF" d="M8.868,30.186c2.094,1.252,4.403,2.426,6.751,3.62
		c5.679,2.884,11.489,5.837,14.594,10.287v-2.641c0-7.536-7.587-11.391-15.619-15.47c-3.455-1.755-6.956-3.536-9.869-5.663"/>
	<path clip-path="url(#SVGID_2_)" fill="#FFFFFF" d="M0,28.242c0,7.536,7.587,11.39,15.619,15.47
		C21.298,46.598,27.108,49.551,30.213,54v-2.641c0-7.536-7.587-11.39-15.619-15.47c-5.528-2.809-11.177-5.683-14.338-9.937"/>
	<path clip-path="url(#SVGID_2_)" fill="#FFFFFF" d="M28.296,5.753c-0.068-0.097-0.138-0.193-0.209-0.289
		c-0.851,1.638-1.934,4.401-0.557,5.926c1.025,0.92,1.934,1.906,2.683,2.981V11.73c0-2.074-0.577-3.869-1.579-5.468
		C28.506,6.092,28.394,5.922,28.296,5.753"/>
	<path clip-path="url(#SVGID_2_)" fill="#FFFFFF" d="M25.872,13l-0.002,0.002c-0.003-0.004-0.006-0.008-0.01-0.012
		c-1.144-1.008-2.463-1.94-3.898-2.828c-0.62,2.17-1.476,6.412,0.84,7.708v0.001c2.998,1.826,5.643,3.874,7.411,6.407v-2.64
		C30.213,18.072,28.513,15.331,25.872,13"/>
	<path clip-path="url(#SVGID_2_)" fill="#FFFFFF" d="M12.467,14.988c-0.237,0.695-0.485,1.678-0.495,2.775
		c-0.025,2.692,1.379,4.846,4.174,6.402c5.509,2.801,11.057,5.707,14.067,10.02v-2.642c0-5.208-3.625-8.657-8.515-11.638
		l-0.002,0.004c-0.071-0.039-0.134-0.084-0.202-0.126c-2.133-1.286-4.496-2.488-6.901-3.71
		C13.885,15.714,13.174,15.354,12.467,14.988"/>
	<path clip-path="url(#SVGID_2_)" fill="#FFFFFF" d="M32.507,51.359V54c3.104-4.45,8.915-7.402,14.594-10.287
		c8.032-4.08,15.619-7.935,15.619-15.471c0-0.805-0.091-1.564-0.256-2.29c-3.16,4.255-8.811,7.129-14.338,9.937
		C40.094,39.97,32.507,43.823,32.507,51.359"/>
	<path clip-path="url(#SVGID_2_)" fill="#FFFFFF" d="M48.126,16.075c-2.405,1.221-4.768,2.423-6.901,3.709
		c-0.067,0.042-0.131,0.087-0.201,0.127l-0.002-0.004c-4.891,2.981-8.515,6.43-8.515,11.638v2.64
		c3.009-4.312,8.559-7.219,14.066-10.019c2.795-1.556,4.2-3.71,4.174-6.402c-0.01-1.097-0.258-2.08-0.495-2.775
		C49.545,15.354,48.835,15.715,48.126,16.075"/>
	<path clip-path="url(#SVGID_2_)" fill="#FFFFFF" d="M36.859,12.99c-0.004,0.004-0.006,0.008-0.01,0.012L36.848,13
		c-2.642,2.331-4.342,5.072-4.342,8.638v2.64c1.769-2.533,4.413-4.581,7.411-6.407V17.87c2.316-1.296,1.46-5.538,0.84-7.707
		C39.322,11.051,38.003,11.981,36.859,12.99"/>
	<path clip-path="url(#SVGID_2_)" fill="#FFFFFF" d="M48.126,25.982c-8.033,4.081-15.619,7.934-15.619,15.47v2.641
		c3.105-4.449,8.914-7.402,14.593-10.288c2.35-1.192,4.658-2.366,6.752-3.619l-0.002-0.003c4.594-3.066,4.559-7.521,4.146-9.862
		C55.081,22.446,51.58,24.227,48.126,25.982"/>
	<path clip-path="url(#SVGID_2_)" fill="#FFFFFF" d="M34.424,5.753c-0.098,0.169-0.21,0.339-0.339,0.509
		c-1.001,1.599-1.579,3.394-1.579,5.468v2.641c0.75-1.075,1.659-2.061,2.685-2.981c1.376-1.525,0.294-4.288-0.558-5.926
		C34.562,5.56,34.492,5.656,34.424,5.753"/>
</g>
</svg>
