<?xml version="1.0" encoding="utf-8"?>
<!-- Generator: Adobe Illustrator 15.1.0, SVG Export Plug-In . SVG Version: 6.00 Build 0)  -->
<!DOCTYPE svg PUBLIC "-//W3C//DTD SVG 1.1//EN" "http://www.w3.org/Graphics/SVG/1.1/DTD/svg11.dtd">
<svg version="1.1" id="Layer_1" xmlns="http://www.w3.org/2000/svg" xmlns:xlink="http://www.w3.org/1999/xlink" x="0px" y="0px"
	 width="36px" height="36px" viewBox="0 0 36 36" enable-background="new 0 0 36 36" xml:space="preserve">
<g>
	<defs>
		<rect id="SVGID_1_" x="0.328" y="0.671" width="35.345" height="34.658"/>
	</defs>
	<clipPath id="SVGID_2_">
		<use xlink:href="#SVGID_1_"  overflow="visible"/>
	</clipPath>
	<path clip-path="url(#SVGID_2_)" d="M26.561,14.751c-0.757-6.656-10.582-8.289-14.911-3.52c-2.02,2.225-3.678,7.439,1.381,9.477
		c0.736-2.331-0.849-2.565-0.829-4.604c0.063-6.425,10.757-7.675,11.321-1.083c0.21,2.455-0.427,6.743-4.971,6.499
		c-0.081-0.552-0.747-0.53-0.829-1.083c-0.236-2.915,2.422-5.857-0.276-7.31c-3.447,0.104-2.256,2.985-2.485,5.685
		c-0.255,3.01-2.673,7.938-1.656,10.831c2.229-1.333,2.578-4.512,3.589-7.04C22.5,26.257,27.144,19.869,26.561,14.751 M15.792,0.671
		h4.417c8.601,1.676,13.755,6.73,15.464,15.163v4.332c-1.709,8.433-6.863,13.487-15.464,15.163h-4.417
		c-8.6-1.676-13.755-6.73-15.464-15.163v-4.332C2.037,7.401,7.192,2.347,15.792,0.671"/>
</g>
</svg>
