<?xml version="1.0" encoding="utf-8"?>
<!-- Generator: Adobe Illustrator 15.1.0, SVG Export Plug-In . SVG Version: 6.00 Build 0)  -->
<!DOCTYPE svg PUBLIC "-//W3C//DTD SVG 1.1//EN" "http://www.w3.org/Graphics/SVG/1.1/DTD/svg11.dtd">
<svg version="1.1" id="Layer_1" xmlns="http://www.w3.org/2000/svg" xmlns:xlink="http://www.w3.org/1999/xlink" x="0px" y="0px"
	 width="36px" height="36px" viewBox="0 0 36 36" enable-background="new 0 0 36 36" xml:space="preserve">
<g>
	<defs>
		<rect id="SVGID_1_" x="0.328" y="0.328" width="35.345" height="35.345"/>
	</defs>
	<clipPath id="SVGID_2_">
		<use xlink:href="#SVGID_1_"  overflow="visible"/>
	</clipPath>
	<path clip-path="url(#SVGID_2_)" d="M15.239,14.135H13.03v3.866c0.66,0.167,2.003-0.347,2.209,0.275V28.77h4.418V18.001h3.038
		c-0.125-1.506,0.492-2.271,0.275-3.866c-1.021-0.176-2.75,0.357-3.313-0.277c0.04-1.065-0.216-2.424,0.553-2.76h2.761V7.231
		C17.405,6.543,14.338,8.354,15.239,14.135 M15.792,0.328h4.418c8.6,1.71,13.754,6.864,15.464,15.463v4.419
		c-1.71,8.599-6.864,13.753-15.464,15.463h-4.418C7.192,33.963,2.038,28.809,0.329,20.21v-4.419
		C2.038,7.192,7.192,2.038,15.792,0.328"/>
</g>
</svg>
