<?xml version="1.0" encoding="utf-8"?>
<!-- Generator: Adobe Illustrator 15.1.0, SVG Export Plug-In  -->
<!DOCTYPE svg PUBLIC "-//W3C//DTD SVG 1.1//EN" "http://www.w3.org/Graphics/SVG/1.1/DTD/svg11.dtd" [
	<!ENTITY ns_flows "http://ns.adobe.com/Flows/1.0/">
]>
<svg version="1.1"
	 xmlns="http://www.w3.org/2000/svg" xmlns:xlink="http://www.w3.org/1999/xlink" xmlns:a="http://ns.adobe.com/AdobeSVGViewerExtensions/3.0/"
	 x="0px" y="0px" width="192px" height="192px" viewBox="-3.833 -3.833 192 192"
	 overflow="visible" enable-background="new -3.833 -3.833 192 192" xml:space="preserve">
<defs>
</defs>
<g>
	<defs>
		<rect id="SVGID_1_" width="184.333" height="184.333"/>
	</defs>
	<clipPath id="SVGID_2_">
		<use xlink:href="#SVGID_1_"  overflow="visible"/>
	</clipPath>
	<path clip-path="url(#SVGID_2_)" fill="#E1EACE" d="M129.1,66.642c-16.35,3.75-24.396,38.222-44.294,26.802
		c-9.583-5.499-6.423-17.583,0.117-24.269C97.379,56.445,114.301,66.838,129.1,66.642"/>
	<path clip-path="url(#SVGID_2_)" fill="#231F20" d="M129.1,66.642c-2.632,0.742-4.928,2.262-6.948,4.02
		c-2.021,1.776-3.815,3.795-5.515,5.896c-3.425,4.181-6.486,8.694-10.252,12.771c-1.881,2.031-3.949,3.978-6.443,5.447
		c-1.241,0.733-2.594,1.335-4.027,1.718c-1.434,0.38-2.944,0.531-4.431,0.422c-1.489-0.097-2.938-0.461-4.302-0.972
		c-1.375-0.525-2.631-1.155-3.88-1.962c-1.241-0.815-2.373-1.835-3.293-3.043c-0.92-1.206-1.612-2.597-2.021-4.051
		c-0.814-2.93-0.556-5.982,0.255-8.746c0.821-2.778,2.172-5.353,3.922-7.617c1.765-2.261,3.914-4.205,6.388-5.681
		c2.47-1.482,5.271-2.379,8.08-2.726c2.816-0.356,5.633-0.244,8.372,0.115c2.744,0.362,5.427,0.932,8.086,1.535
		C118.398,64.988,123.645,66.405,129.1,66.642c-5.466,0.336-10.911-0.77-16.254-1.642c-2.676-0.456-5.349-0.888-8.018-1.1
		c-2.663-0.211-5.331-0.239-7.906,0.193c-2.57,0.425-5.027,1.311-7.205,2.667c-2.172,1.359-4.089,3.17-5.623,5.231
		c-1.535,2.066-2.752,4.392-3.448,6.842c-0.699,2.439-0.862,5.028-0.197,7.359c0.629,2.34,2.167,4.341,4.232,5.705
		c2.114,1.374,4.555,2.385,6.995,2.607c2.455,0.246,4.93-0.409,7.15-1.67c2.227-1.26,4.24-3,6.122-4.884
		c3.749-3.808,7.05-8.167,10.743-12.212c1.861-2.008,3.808-3.97,6.016-5.626C123.901,68.462,126.404,67.118,129.1,66.642"/>
	<path clip-path="url(#SVGID_2_)" fill="#B7CF80" d="M115.125,67.689C98.35,67.488,82.422,99.1,65.77,83.32
		c-8.021-7.598-2.107-18.601,5.822-23.56c15.101-9.443,28.339,5.123,42.769,8.414"/>
	<path clip-path="url(#SVGID_2_)" fill="#231F20" d="M115.125,67.689c-2.722,0.103-5.299,1.031-7.665,2.257
		c-2.373,1.243-4.584,2.773-6.72,4.406c-4.295,3.24-8.316,6.887-12.902,9.962c-2.291,1.528-4.736,2.939-7.481,3.804
		c-1.368,0.429-2.809,0.72-4.284,0.772c-1.473,0.062-2.973-0.127-4.396-0.55c-2.868-0.857-5.285-2.622-7.292-4.638
		c-1.042-1.077-1.917-2.29-2.562-3.662c-0.641-1.367-1.026-2.863-1.122-4.366c-0.183-3.027,0.729-5.947,2.115-8.461
		c1.403-2.523,3.281-4.727,5.476-6.543c2.208-1.808,4.717-3.231,7.442-4.128c2.724-0.905,5.658-1.153,8.467-0.817
		c2.815,0.324,5.51,1.139,8.059,2.181c2.55,1.046,4.985,2.284,7.387,3.544c4.789,2.532,9.49,5.216,14.715,6.723
		c-5.371-0.951-10.353-3.389-15.27-5.594c-2.458-1.123-4.916-2.225-7.429-3.105c-2.508-0.878-5.069-1.57-7.652-1.762
		c-2.579-0.199-5.153,0.112-7.56,0.955c-2.403,0.849-4.658,2.191-6.6,3.859c-1.942,1.672-3.633,3.662-4.841,5.888
		c-1.205,2.216-1.917,4.692-1.756,7.097c0.119,2.404,1.217,4.682,2.916,6.439c1.777,1.828,3.893,3.329,6.222,4.079
		c2.33,0.768,4.877,0.669,7.317-0.054c2.445-0.722,4.794-1.949,7.054-3.336c4.513-2.819,8.729-6.261,13.253-9.307
		c2.271-1.504,4.617-2.944,7.144-4.025C109.668,68.229,112.405,67.518,115.125,67.689"/>
	<path clip-path="url(#SVGID_2_)" fill="#A2C35A" d="M120.485,56.653c-16.773-0.201-32.703,31.411-49.355,15.631
		c-8.021-7.598-2.107-18.601,5.822-23.56c15.101-9.443,28.338,5.123,42.77,8.413"/>
	<path clip-path="url(#SVGID_2_)" fill="#231F20" d="M120.485,56.653c-2.721,0.102-5.299,1.031-7.666,2.257
		c-2.371,1.243-4.583,2.773-6.719,4.405c-4.295,3.241-8.316,6.888-12.902,9.962c-2.29,1.528-4.735,2.939-7.481,3.805
		c-1.368,0.429-2.809,0.719-4.284,0.772c-1.473,0.062-2.973-0.127-4.396-0.551c-2.868-0.857-5.285-2.623-7.292-4.637
		c-1.042-1.077-1.917-2.291-2.562-3.662c-0.641-1.366-1.026-2.863-1.122-4.366c-0.183-3.027,0.729-5.947,2.115-8.46
		c1.403-2.523,3.281-4.727,5.476-6.543c2.208-1.808,4.717-3.231,7.442-4.128c2.724-0.905,5.658-1.153,8.467-0.817
		c2.816,0.324,5.509,1.139,8.058,2.181c2.551,1.046,4.985,2.284,7.388,3.544c4.788,2.531,9.49,5.216,14.716,6.722
		c-5.373-0.951-10.354-3.389-15.27-5.594c-2.459-1.123-4.917-2.224-7.431-3.105c-2.507-0.877-5.068-1.569-7.651-1.761
		c-2.579-0.199-5.153,0.112-7.56,0.955c-2.403,0.849-4.658,2.192-6.6,3.859c-1.942,1.672-3.633,3.662-4.841,5.888
		c-1.205,2.216-1.917,4.692-1.756,7.097c0.119,2.404,1.217,4.682,2.916,6.439c1.777,1.827,3.893,3.329,6.222,4.079
		c2.33,0.768,4.877,0.669,7.317-0.054c2.445-0.722,4.794-1.949,7.054-3.336c4.514-2.819,8.729-6.261,13.253-9.307
		c2.272-1.504,4.618-2.944,7.144-4.025C115.029,57.193,117.764,56.482,120.485,56.653"/>
	<path clip-path="url(#SVGID_2_)" fill="#8DB836" d="M134.635,59.942c-16.773-0.202-32.703,31.411-49.355,15.631
		c-8.021-7.598-2.107-18.6,5.822-23.559C106.203,42.571,120.205,56.652,134.635,59.942"/>
	<path clip-path="url(#SVGID_2_)" fill="#231F20" d="M134.635,59.942c-2.733,0.102-5.322,1.039-7.699,2.273
		c-2.382,1.25-4.602,2.792-6.746,4.432c-4.313,3.258-8.351,6.925-12.969,10.001c-2.306,1.532-4.775,2.936-7.543,3.779
		c-1.38,0.421-2.836,0.688-4.318,0.723c-1.482,0.031-2.986-0.177-4.406-0.633c-1.425-0.444-2.749-1.139-3.954-1.957
		c-1.212-0.833-2.284-1.741-3.309-2.819c-1.015-1.083-1.875-2.342-2.486-3.732c-0.611-1.388-0.956-2.903-1.011-4.413
		c-0.102-3.039,0.869-5.944,2.306-8.441c1.452-2.506,3.37-4.692,5.604-6.48c2.248-1.782,4.793-3.167,7.545-4.019
		c2.75-0.86,5.682-1.073,8.495-0.749c2.821,0.316,5.531,1.088,8.11,2.081c2.58,0.998,5.056,2.181,7.497,3.394
		C124.622,55.818,129.389,58.43,134.635,59.942c-5.392-0.959-10.424-3.315-15.412-5.42c-2.494-1.073-4.989-2.12-7.533-2.953
		c-2.539-0.833-5.125-1.487-7.729-1.673c-2.599-0.192-5.194,0.092-7.632,0.897c-2.43,0.811-4.719,2.12-6.695,3.762
		c-1.977,1.647-3.708,3.621-4.96,5.84c-1.254,2.206-2.021,4.683-1.921,7.106c0.06,2.423,1.084,4.729,2.771,6.54
		c1.731,1.834,3.866,3.391,6.185,4.181c2.328,0.816,4.886,0.762,7.341,0.058c2.461-0.701,4.826-1.918,7.099-3.307
		c4.541-2.818,8.774-6.278,13.315-9.342c2.281-1.514,4.635-2.963,7.17-4.053C129.155,60.489,131.903,59.771,134.635,59.942"/>
	<path clip-path="url(#SVGID_2_)" fill="#231F20" d="M133.902,59.954l0.179-0.019c0.032-0.002,0.055-0.008,0.098-0.003
		c-0.012-0.015,0.066,0.021,0.008,0.08l-0.019,0.007l-0.024,0.005l-0.045,0.011l-0.355,0.062l-0.707,0.107l-1.419,0.166
		c-0.95,0.104-1.896,0.164-2.868,0.201c-0.244,0.008-0.488,0.007-0.747-0.007c-0.278-0.015-0.513-0.048-0.754-0.074l-1.427-0.185
		c-0.946-0.125-1.879-0.309-2.813-0.47c-1.872-0.331-3.718-0.708-5.573-1.129c-0.918-0.202-1.828-0.421-2.729-0.603
		c-0.451-0.089-0.898-0.185-1.326-0.252c-0.415-0.068-0.84-0.104-1.287-0.134c-1.799-0.116-3.678-0.125-5.506-0.077
		c-0.451,0.012-0.922,0.034-1.334,0.067c-0.401,0.037-0.832,0.109-1.272,0.195c-0.874,0.18-1.774,0.398-2.624,0.653
		c-0.426,0.129-0.814,0.272-1.16,0.456c-0.384,0.195-0.771,0.434-1.163,0.666c-0.776,0.475-1.565,1-2.265,1.546
		c-0.689,0.548-1.377,1.231-2.066,1.868c-0.689,0.648-1.377,1.303-2.083,1.944c0.485-0.823,1.005-1.619,1.542-2.406
		c0.547-0.792,1.086-1.546,1.744-2.322c0.687-0.736,1.396-1.365,2.149-1.997c0.376-0.316,0.771-0.608,1.2-0.892
		c0.461-0.31,0.943-0.542,1.404-0.737c0.922-0.396,1.838-0.713,2.797-0.977c0.479-0.131,0.971-0.257,1.508-0.333
		c0.525-0.072,0.998-0.118,1.488-0.158c1.943-0.141,3.847-0.171,5.817-0.048c0.493,0.037,1.009,0.087,1.525,0.177
		c0.503,0.087,0.98,0.186,1.452,0.298c0.941,0.227,1.866,0.461,2.777,0.72c1.807,0.506,3.633,1.008,5.436,1.548l2.709,0.78
		l1.349,0.381c0.224,0.058,0.452,0.124,0.642,0.161c0.211,0.042,0.437,0.074,0.664,0.111c0.914,0.143,1.857,0.226,2.795,0.335
		l1.412,0.149l0.707,0.076l0.354,0.03l0.043,0.003l0.02,0c0.003,0,0.002,0,0.003,0.001c-0.05,0.053,0.019,0.085,0,0.069
		c-0.015-0.007-0.052-0.014-0.078-0.02L133.902,59.954z"/>
</g>
<text transform="matrix(1 0 0 1 51.0757 116.1685)"><tspan x="0" y="0" fill="#231F20" font-family="'Mido-Medium'" font-size="8.9606">S</tspan><tspan x="6.066" y="0" fill="#231F20" font-family="'Mido-Medium'" font-size="8.9606">P</tspan><tspan x="12.338" y="0" fill="#231F20" font-family="'Mido-Medium'" font-size="8.9606">R</tspan><tspan x="19.749" y="0" fill="#231F20" font-family="'Mido-Medium'" font-size="8.9606">I</tspan><tspan x="24.05" y="0" fill="#231F20" font-family="'Mido-Medium'" font-size="8.9606">G</tspan><tspan x="31.272" y="0" fill="#231F20" font-family="'Mido-Medium'" font-size="8.9606">S</tspan><tspan x="37.518" y="0" fill="#231F20" font-family="'Mido-Medium'" font-size="8.9606"> to </tspan><tspan x="50.421" y="0" fill="#231F20" font-family="'Mido-Medium'" font-size="8.9606">T</tspan><tspan x="57.168" y="0" fill="#231F20" font-family="'Mido-Medium'" font-size="8.9606">W</tspan><tspan x="67.67" y="0" fill="#231F20" font-family="'Mido-Medium'" font-size="8.9606">I</tspan><tspan x="71.971" y="0" fill="#231F20" font-family="'Mido-Medium'" font-size="8.9606">G</tspan><tspan x="79.192" y="0" fill="#231F20" font-family="'Mido-Medium'" font-size="8.9606">S</tspan></text>
</svg>
