<?xml version="1.0" encoding="utf-8"?>
<!-- Generator: Adobe Illustrator 15.1.0, SVG Export Plug-In . SVG Version: 6.00 Build 0)  -->
<!DOCTYPE svg PUBLIC "-//W3C//DTD SVG 1.1//EN" "http://www.w3.org/Graphics/SVG/1.1/DTD/svg11.dtd">
<svg version="1.1" id="Layer_1" xmlns="http://www.w3.org/2000/svg" xmlns:xlink="http://www.w3.org/1999/xlink" x="0px" y="0px"
	 width="36px" height="36px" viewBox="0 0 36 36" enable-background="new 0 0 36 36" xml:space="preserve">
<g>
	<defs>
		<rect id="SVGID_1_" x="0.327" y="0.328" width="35.345" height="35.345"/>
	</defs>
	<clipPath id="SVGID_2_">
		<use xlink:href="#SVGID_1_"  overflow="visible"/>
	</clipPath>
	<path clip-path="url(#SVGID_2_)" d="M11.373,21.591c-1.017,1.119-2.13,2.364-1.933,3.037h17.397
		c-1.182-1.951-3.919-4.734-6.075-6.627c-0.704,1.045-1.88,1.616-2.762,2.484c-1.037-0.805-1.9-1.781-3.037-2.484
		C14.071,19.395,12.53,20.315,11.373,21.591 M21.865,17.448c2.112,1.217,4.417,5.777,6.075,5.523
		c-0.183-3.499,0.367-7.731-0.276-10.769C25.93,14.147,23.539,15.44,21.865,17.448 M8.059,23.247
		c2.016-0.933,4.091-4.193,6.076-6.075c-2.099-1.584-3.921-3.443-6.076-4.97V23.247z M17.724,18.553
		c1.572-0.798,3.366-2.247,4.971-3.59c1.301-1.088,3.843-3.114,3.589-3.865c-5.615,0.183-11.965-0.369-17.12,0.275
		C12.097,13.687,14.922,16.107,17.724,18.553 M15.791,0.328h4.418c8.6,1.71,13.754,6.864,15.464,15.463v4.419
		c-1.71,8.599-6.864,13.753-15.464,15.463h-4.418C7.191,33.963,2.037,28.809,0.328,20.21v-4.419
		C2.037,7.192,7.191,2.038,15.791,0.328"/>
</g>
</svg>
