<?xml version="1.0" encoding="utf-8"?>
<!-- Generator: Adobe Illustrator 15.1.0, SVG Export Plug-In . SVG Version: 6.00 Build 0)  -->
<!DOCTYPE svg PUBLIC "-//W3C//DTD SVG 1.1//EN" "http://www.w3.org/Graphics/SVG/1.1/DTD/svg11.dtd">
<svg version="1.1" id="Layer_1" xmlns="http://www.w3.org/2000/svg" xmlns:xlink="http://www.w3.org/1999/xlink" x="0px" y="0px"
	 width="36px" height="31px" viewBox="0 0 36 31" enable-background="new 0 0 36 31" xml:space="preserve">
<g>
	<defs>
		<rect id="SVGID_1_" x="0.327" y="0.296" width="35.345" height="30.704"/>
	</defs>
	<clipPath id="SVGID_2_">
		<use xlink:href="#SVGID_1_"  overflow="visible"/>
	</clipPath>
	<path clip-path="url(#SVGID_2_)" d="M18,0.296C17.883,0.552,17.751,0.8,17.607,1.04c-0.304,0.549-0.495,1.031-0.25,1.531
		C17.602,2.93,17.819,3.306,18,3.702c0.181-0.396,0.396-0.772,0.643-1.131c0.245-0.5,0.054-0.982-0.25-1.531
		C18.249,0.8,18.117,0.552,18,0.296"/>
	<path clip-path="url(#SVGID_2_)" d="M5.325,17.331c1.18,0.719,2.481,1.393,3.805,2.078c3.2,1.654,6.474,3.35,8.224,5.903v-1.515
		c0-4.326-4.276-6.538-8.802-8.88c-1.947-1.007-3.92-2.029-5.562-3.25"/>
	<path clip-path="url(#SVGID_2_)" d="M0.327,16.216c0,4.324,4.276,6.538,8.802,8.88c3.201,1.655,6.474,3.35,8.224,5.903v-1.515
		c0-4.326-4.275-6.538-8.802-8.88c-3.115-1.611-6.299-3.261-8.08-5.703"/>
	<path clip-path="url(#SVGID_2_)" d="M16.273,3.307c-0.038-0.056-0.078-0.111-0.118-0.166c-0.479,0.94-1.09,2.526-0.314,3.402
		c0.578,0.528,1.09,1.094,1.513,1.71V6.738c0-1.191-0.326-2.221-0.89-3.139C16.391,3.502,16.328,3.404,16.273,3.307"/>
	<path clip-path="url(#SVGID_2_)" d="M14.907,7.467L14.907,7.467C14.904,7.466,14.902,7.462,14.9,7.46
		c-0.644-0.578-1.388-1.113-2.196-1.623c-0.35,1.245-0.832,3.68,0.473,4.424v0.001c1.689,1.048,3.18,2.223,4.176,3.677v-1.515
		C17.354,10.377,16.396,8.805,14.907,7.467"/>
	<path clip-path="url(#SVGID_2_)" d="M7.353,8.608C7.219,9.007,7.08,9.571,7.074,10.201c-0.014,1.545,0.777,2.782,2.352,3.675
		c3.105,1.607,6.232,3.274,7.928,5.751V18.11c0-2.989-2.043-4.969-4.799-6.68l-0.001,0.002c-0.04-0.022-0.076-0.048-0.114-0.072
		c-1.202-0.738-2.533-1.428-3.889-2.129C8.152,9.025,7.752,8.818,7.353,8.608"/>
	<path clip-path="url(#SVGID_2_)" d="M18.646,29.484v1.517c1.75-2.556,5.023-4.25,8.224-5.905c4.527-2.342,8.802-4.556,8.802-8.88
		c0-0.462-0.051-0.898-0.144-1.314c-1.781,2.442-4.965,4.092-8.08,5.703C22.922,22.946,18.646,25.158,18.646,29.484"/>
	<path clip-path="url(#SVGID_2_)" d="M27.448,9.231c-1.354,0.701-2.687,1.391-3.889,2.129c-0.038,0.024-0.074,0.05-0.114,0.073
		l-0.001-0.003c-2.756,1.711-4.798,3.691-4.798,6.681v1.515c1.696-2.475,4.823-4.143,7.927-5.75
		c1.575-0.893,2.366-2.129,2.353-3.675c-0.006-0.629-0.146-1.193-0.279-1.593C28.248,8.817,27.848,9.024,27.448,9.231"/>
	<path clip-path="url(#SVGID_2_)" d="M21.099,7.46c-0.002,0.002-0.004,0.005-0.006,0.007l-0.001-0.001
		c-1.487,1.338-2.445,2.911-2.445,4.958v1.515c0.995-1.454,2.486-2.629,4.176-3.677v-0.001c1.306-0.744,0.823-3.179,0.474-4.424
		C22.487,6.348,21.744,6.882,21.099,7.46"/>
	<path clip-path="url(#SVGID_2_)" d="M27.448,14.918c-4.527,2.342-8.802,4.555-8.802,8.88v1.516c1.75-2.555,5.023-4.249,8.224-5.905
		c1.324-0.685,2.625-1.358,3.806-2.077l-0.001-0.001c2.588-1.761,2.567-4.318,2.336-5.662
		C31.368,12.888,29.396,13.911,27.448,14.918"/>
	<path clip-path="url(#SVGID_2_)" d="M19.727,3.307c-0.055,0.097-0.118,0.195-0.19,0.292c-0.564,0.918-0.891,1.948-0.891,3.139
		v1.515c0.423-0.616,0.936-1.182,1.514-1.71c0.774-0.876,0.165-2.462-0.314-3.402C19.805,3.196,19.765,3.251,19.727,3.307"/>
</g>
</svg>
