<?xml version="1.0" standalone="no"?>
<!DOCTYPE svg PUBLIC "-//W3C//DTD SVG 20010904//EN"
 "http://www.w3.org/TR/2001/REC-SVG-20010904/DTD/svg10.dtd">
<svg version="1.0" xmlns="http://www.w3.org/2000/svg"
 width="1008.000000pt" height="1008.000000pt" viewBox="0 0 1008.000000 1008.000000"
 preserveAspectRatio="xMidYMid meet">
<metadata>
Created by potrace 1.11, written by Peter Selinger 2001-2013
</metadata>
<g transform="translate(0.000000,1008.000000) scale(0.100000,-0.100000)"
fill="#000000" stroke="none">
<path d="M4981 9208 c-18 -35 -42 -79 -53 -98 -33 -55 -94 -181 -107 -220 -6
-19 -13 -57 -15 -85 -4 -53 18 -158 34 -163 6 -2 10 -8 10 -14 0 -6 20 -41 44
-77 24 -36 61 -101 84 -144 l41 -79 22 44 c13 23 31 59 40 79 9 20 40 71 69
114 67 103 83 150 77 234 -3 36 -10 80 -15 96 -15 44 -43 109 -51 115 -7 6
-57 100 -105 197 -17 34 -34 63 -37 63 -3 0 -20 -28 -38 -62z"/>
<path d="M4452 8399 c-21 -46 -47 -106 -57 -134 -10 -27 -23 -56 -28 -62 -5
-7 -7 -13 -3 -13 3 0 1 -12 -5 -27 -45 -114 -69 -319 -49 -425 17 -91 62 -167
147 -249 149 -144 255 -262 326 -362 29 -40 43 -53 47 -43 7 20 4 485 -4 551
-15 143 -23 183 -57 305 -5 19 -11 40 -12 45 -2 10 -21 61 -37 100 -5 11 -19
43 -31 70 -13 28 -24 52 -24 56 0 11 -118 204 -126 207 -5 2 -9 8 -9 13 0 6
-9 19 -19 31 l-20 21 -39 -84z"/>
<path d="M5503 8429 c-167 -223 -284 -557 -298 -851 -2 -38 -6 -72 -8 -75 -3
-2 -2 -17 3 -32 4 -15 3 -35 -2 -44 -5 -10 -5 -17 -1 -17 4 0 8 -11 8 -25 0
-14 -4 -25 -8 -25 -5 0 -5 -5 -1 -12 10 -17 11 -58 2 -64 -5 -3 -5 -11 -1 -17
10 -16 10 -46 1 -74 -4 -13 -4 -23 0 -23 9 0 8 -53 -2 -68 -3 -6 -2 -14 4 -17
12 -7 40 12 40 27 0 5 6 15 13 22 6 7 26 30 42 50 17 21 44 54 60 74 17 20 92
98 167 174 113 113 179 195 183 228 0 3 4 10 8 17 24 38 25 249 2 345 -9 35
-18 73 -21 85 -10 47 -67 197 -108 285 l-43 91 -40 -54z"/>
<path d="M3495 7663 c-24 -96 -26 -106 -30 -128 -2 -11 -8 -40 -15 -65 -6 -25
-13 -63 -14 -85 -2 -22 -5 -40 -6 -40 -6 0 -21 -170 -22 -259 -3 -198 27 -335
98 -448 29 -45 112 -128 129 -128 6 0 24 -12 40 -27 16 -16 30 -26 31 -23 3 6
307 -194 328 -216 8 -8 17 -14 21 -14 10 0 247 -186 330 -260 103 -92 289
-285 355 -370 19 -25 38 -46 42 -48 5 -2 8 -9 8 -16 0 -7 10 -22 23 -34 l22
-21 -1 242 c-1 221 -8 380 -19 432 -3 11 -7 31 -9 45 -6 33 -22 105 -35 155
-14 56 -85 231 -115 285 -14 25 -30 56 -36 68 -17 39 -151 232 -161 232 -5 0
-9 4 -9 10 0 13 -21 38 -141 166 -42 46 -194 186 -260 241 -74 61 -80 65 -174
133 -49 36 -92 67 -95 70 -3 3 -12 10 -21 15 -10 6 -38 25 -63 43 -26 17 -51
32 -55 32 -4 0 -16 9 -26 20 -10 11 -23 20 -29 20 -6 0 -22 9 -36 20 -14 11
-28 20 -31 20 -4 0 -14 -30 -24 -67z"/>
<path d="M6343 7618 c-92 -61 -173 -117 -179 -122 -6 -6 -26 -22 -44 -36 -36
-27 -122 -93 -153 -119 -124 -101 -367 -348 -401 -410 -5 -9 -15 -22 -22 -29
-44 -44 -174 -267 -219 -377 -18 -43 -65 -180 -70 -205 -2 -8 -4 -15 -5 -15
-1 0 -3 -9 -4 -20 -2 -11 -8 -45 -14 -75 -19 -88 -24 -129 -27 -216 -1 -45 -6
-87 -9 -93 -4 -6 -3 -11 1 -11 10 0 9 -53 -2 -69 -3 -6 -3 -11 2 -11 4 0 8
-11 8 -25 0 -14 -4 -25 -8 -25 -5 0 -5 -6 -1 -12 5 -7 8 -22 8 -33 0 -11 -3
-26 -8 -33 -4 -6 -3 -12 2 -12 8 0 7 -63 -2 -87 -3 -7 -2 -13 2 -13 9 0 8 -42
-1 -57 -4 -7 -3 -14 2 -18 5 -3 44 38 86 91 42 53 84 104 93 113 10 10 53 56
98 102 76 79 101 102 229 215 73 63 187 154 194 154 3 0 17 10 31 23 14 12 54
42 90 67 36 24 67 48 68 52 2 4 10 8 18 8 8 0 14 5 14 10 0 6 5 10 10 10 12 0
73 41 78 53 2 4 8 7 13 7 12 0 93 52 97 63 2 4 8 7 14 7 6 0 26 11 44 25 18
14 36 25 41 25 4 0 31 24 60 54 49 52 108 156 117 207 3 13 5 24 6 24 2 0 9
35 19 100 14 88 5 350 -15 455 -2 14 -7 41 -10 60 -3 19 -12 62 -19 94 -8 33
-12 63 -9 67 2 4 1 10 -4 13 -4 3 -14 34 -22 70 -7 36 -17 66 -21 66 -4 0 -83
-50 -176 -112z"/>
<path d="M1985 6927 c-4 -18 -10 -36 -13 -42 -4 -5 -7 -14 -8 -20 -1 -5 -5
-25 -9 -44 -3 -19 -8 -37 -10 -40 -2 -4 -6 -24 -9 -46 -35 -245 -23 -411 44
-600 26 -73 108 -217 160 -280 31 -38 155 -162 196 -196 48 -41 180 -129 193
-129 6 0 11 -3 11 -7 0 -5 10 -13 23 -19 12 -6 103 -53 202 -104 99 -52 216
-112 260 -134 44 -23 82 -43 85 -47 3 -3 21 -13 40 -22 19 -9 71 -37 115 -62
44 -26 92 -51 108 -58 15 -6 27 -15 27 -19 0 -4 4 -8 9 -8 8 0 102 -52 213
-119 106 -63 264 -165 266 -172 2 -5 10 -9 18 -9 8 0 14 -3 14 -8 0 -4 9 -12
19 -17 32 -16 146 -97 149 -107 2 -4 8 -8 13 -8 8 0 27 -14 63 -45 6 -5 38
-30 71 -55 33 -25 71 -56 85 -70 14 -14 41 -38 60 -53 118 -97 308 -299 403
-429 23 -32 44 -58 47 -58 7 0 4 471 -4 560 -10 108 -14 137 -31 210 -23 95
-45 171 -61 207 -8 17 -14 33 -14 36 0 2 -12 31 -27 63 -14 33 -26 62 -25 67
1 4 -2 7 -8 7 -5 0 -10 5 -10 12 0 10 -116 207 -129 218 -3 3 -25 30 -47 60
-78 104 -245 280 -353 370 -29 25 -59 50 -65 55 -9 9 -91 75 -121 98 -5 4 -35
25 -65 47 -30 22 -59 43 -65 48 -90 74 -512 329 -790 477 -49 26 -112 60 -140
75 -27 15 -115 60 -195 101 -80 41 -147 76 -150 79 -3 3 -11 6 -19 8 -8 2 -26
11 -40 22 -14 10 -28 18 -31 18 -8 0 -84 36 -95 45 -13 10 -303 157 -332 168
-19 7 -23 4 -28 -24z"/>
<path d="M8014 6951 c-5 -5 -135 -73 -289 -151 -498 -254 -618 -317 -810 -423
-119 -66 -291 -164 -335 -192 -19 -12 -60 -37 -90 -56 -30 -19 -95 -61 -145
-95 -49 -33 -112 -75 -140 -94 -27 -18 -54 -38 -60 -44 -5 -6 -44 -36 -85 -67
-88 -66 -138 -108 -198 -166 -24 -24 -45 -43 -47 -43 -4 0 -78 -76 -160 -165
-93 -101 -205 -265 -277 -406 -52 -101 -120 -285 -133 -358 -3 -19 -7 -37 -9
-40 -2 -3 -7 -31 -11 -61 -3 -30 -9 -63 -11 -73 -3 -10 -7 -67 -9 -127 -2 -60
-6 -114 -10 -119 -3 -6 -2 -11 4 -11 6 0 6 -11 1 -30 -5 -17 -5 -30 0 -30 5 0
5 -13 0 -30 -5 -16 -6 -30 -2 -30 9 0 7 -94 -2 -109 -4 -6 -3 -11 3 -11 6 0 7
-11 2 -27 -5 -16 -5 -37 -1 -48 4 -11 5 -27 3 -35 -3 -8 11 3 31 25 19 22 35
43 36 48 0 4 8 15 18 25 9 11 37 43 62 73 65 76 243 255 325 325 39 32 72 61
75 64 51 52 333 252 535 382 114 73 362 218 372 218 3 0 17 8 31 19 15 10 65
38 112 63 47 25 105 57 130 70 61 34 269 142 420 219 69 35 127 66 130 70 3 3
19 14 37 23 40 20 150 97 180 125 12 12 25 21 28 21 10 0 140 136 182 190 124
164 197 356 208 555 2 34 4 65 5 70 2 6 1 12 0 15 -1 3 -3 38 -5 78 -5 97 -11
132 -46 274 -20 82 -35 107 -55 89z"/>
<path d="M771 6072 c6 -15 16 -40 24 -57 8 -16 66 -156 130 -310 124 -296 137
-326 166 -391 11 -22 19 -43 19 -47 0 -3 11 -30 24 -59 32 -72 61 -141 62
-148 0 -3 10 -27 23 -55 36 -80 122 -285 157 -375 36 -92 46 -102 170 -174
155 -89 342 -190 534 -289 85 -43 170 -88 188 -99 17 -11 32 -16 32 -13 0 4 7
2 14 -5 15 -12 35 -22 393 -206 311 -159 455 -235 486 -256 15 -11 27 -16 27
-12 0 4 8 0 18 -8 9 -9 46 -31 82 -50 106 -57 135 -73 140 -78 3 -3 21 -13 40
-23 47 -24 112 -63 127 -76 7 -6 15 -11 18 -11 7 0 41 -22 205 -128 70 -45
266 -183 305 -214 124 -99 174 -139 228 -187 104 -91 274 -269 351 -366 44
-55 84 -105 90 -112 18 -20 10 553 -9 667 -4 19 -8 44 -10 55 -1 11 -11 49
-20 85 -9 36 -18 70 -20 75 -1 6 -5 17 -8 25 -3 8 -17 44 -30 80 -36 97 -61
150 -69 150 -5 0 -8 7 -8 15 0 16 -5 24 -78 140 -142 224 -351 443 -612 641
-41 32 -76 61 -78 66 -2 4 -8 8 -13 8 -9 0 -68 38 -79 51 -12 14 -220 149
-230 149 -5 0 -10 5 -10 10 0 6 -6 10 -13 10 -7 0 -23 9 -35 20 -12 12 -22 18
-22 15 0 -3 -15 5 -33 19 -19 15 -37 26 -41 26 -3 0 -41 21 -84 48 -42 26
-106 62 -142 81 -36 19 -73 41 -82 49 -10 8 -18 11 -18 6 0 -5 -4 -4 -8 1 -4
6 -45 30 -92 54 -47 24 -107 56 -135 71 -27 15 -158 83 -290 150 -406 208
-527 270 -539 277 -6 4 -13 8 -16 8 -6 1 -75 37 -160 83 -68 38 -142 77 -250
135 -178 95 -576 331 -600 357 -3 3 -21 14 -40 24 -19 11 -37 22 -40 26 -3 3
-27 21 -55 40 -27 19 -52 37 -55 40 -3 4 -13 9 -22 13 -15 5 -16 3 -7 -21z"/>
<path d="M9219 6068 c-24 -19 -64 -47 -89 -63 -25 -17 -46 -33 -48 -37 -2 -5
-8 -8 -13 -8 -5 0 -38 -20 -74 -45 -36 -24 -65 -41 -65 -37 0 4 -4 2 -8 -3 -6
-10 -139 -95 -147 -95 -1 0 -32 -17 -66 -38 -77 -47 -147 -86 -214 -121 -27
-14 -52 -28 -55 -31 -3 -3 -36 -21 -75 -40 -38 -19 -72 -37 -75 -40 -7 -7
-155 -84 -695 -361 -329 -169 -423 -218 -480 -249 -33 -18 -73 -40 -90 -48
-29 -14 -229 -125 -270 -149 -11 -6 -35 -19 -52 -28 -18 -10 -33 -20 -33 -24
0 -3 -15 -13 -32 -20 -18 -8 -64 -35 -103 -60 -38 -25 -72 -45 -75 -46 -3 0
-61 -38 -128 -85 -68 -47 -131 -89 -140 -95 -8 -5 -23 -15 -31 -22 -382 -295
-552 -472 -733 -763 -44 -71 -118 -227 -125 -264 -2 -11 -7 -24 -12 -30 -7
-10 -37 -115 -46 -162 -2 -10 -4 -20 -5 -21 -3 -4 -5 -13 -14 -66 -4 -27 -9
-59 -12 -70 -2 -12 -6 -70 -8 -129 -3 -59 -7 -112 -11 -118 -3 -5 -3 -10 2
-10 4 0 8 -22 8 -50 0 -27 -2 -50 -5 -50 -3 0 -4 -17 -3 -37 1 -21 2 -38 3
-38 1 0 3 -12 4 -27 1 -16 -2 -28 -7 -28 -4 0 -6 -4 -2 -10 9 -14 13 -100 4
-100 -4 0 -5 -10 -2 -21 7 -24 3 -27 49 38 11 14 27 34 37 45 9 10 17 20 17
23 0 3 8 13 18 24 9 10 46 51 82 91 62 69 117 124 223 225 47 43 300 247 362
291 108 76 354 238 410 270 11 6 92 52 180 102 88 50 165 95 170 99 11 8 59
34 190 102 39 20 73 41 77 46 4 6 8 6 8 1 0 -5 8 -2 18 6 9 9 28 19 42 23 14
4 27 11 30 15 4 6 113 62 405 209 50 25 92 48 95 51 3 3 73 39 155 80 83 41
172 87 198 102 26 16 54 28 62 28 8 0 15 3 15 8 0 4 15 14 33 21 17 8 82 42
142 74 61 33 128 70 150 81 22 12 42 24 45 27 3 4 28 19 55 33 101 55 142 80
224 140 81 58 220 189 290 271 115 137 244 386 276 535 1 3 5 21 10 40 4 19 9
44 11 55 2 11 5 31 8 45 19 85 25 317 12 450 -4 36 -8 76 -9 89 -4 36 -18 35
-68 -1z"/>
<path d="M9975 5186 c-5 -6 -23 -29 -39 -51 -43 -58 -42 -57 -193 -210 -127
-129 -257 -245 -358 -320 -51 -38 -55 -41 -85 -66 -13 -11 -40 -30 -60 -41
-19 -12 -37 -25 -40 -28 -11 -14 -249 -170 -259 -170 -6 0 -11 -4 -11 -10 0
-5 -4 -10 -9 -10 -6 0 -29 -13 -53 -29 -44 -29 -328 -193 -428 -246 -30 -17
-57 -32 -60 -35 -3 -3 -21 -13 -40 -22 -19 -10 -81 -42 -137 -72 -57 -30 -103
-51 -103 -48 0 4 -4 2 -8 -4 -8 -13 -223 -124 -239 -124 -6 0 -13 -3 -15 -7
-1 -5 -66 -39 -143 -78 -77 -38 -161 -82 -187 -97 -27 -15 -48 -25 -48 -22 0
4 -6 2 -12 -4 -7 -6 -83 -46 -168 -90 -85 -44 -193 -101 -240 -127 -47 -25
-93 -49 -102 -52 -10 -3 -18 -9 -18 -14 0 -5 -9 -9 -20 -9 -11 0 -20 -4 -20
-8 0 -5 -12 -14 -27 -21 -35 -15 -277 -159 -358 -212 -33 -21 -68 -42 -77 -45
-10 -4 -18 -10 -18 -15 0 -5 -5 -9 -11 -9 -12 0 -203 -132 -309 -215 -36 -27
-69 -53 -75 -58 -13 -9 -119 -103 -160 -140 -50 -46 -145 -139 -145 -143 0 -2
-15 -18 -32 -37 -46 -46 -91 -99 -103 -119 -5 -9 -36 -54 -69 -100 -124 -176
-231 -423 -262 -606 -3 -15 -7 -34 -9 -42 -7 -25 -16 -120 -20 -205 -3 -44 -6
-92 -8 -107 -2 -14 -1 -32 4 -39 4 -7 3 -21 -2 -31 -5 -10 -6 -18 -2 -18 4 0
8 -27 8 -60 0 -33 -2 -60 -5 -60 -3 0 -5 -16 -5 -35 0 -19 3 -35 6 -35 6 0 2
-67 -5 -78 -3 -5 -1 -14 4 -21 6 -10 16 -2 39 30 89 124 279 328 422 453 61
53 250 204 307 244 90 64 388 259 445 293 33 19 71 41 85 50 15 9 88 50 162
91 74 42 151 85 170 96 19 11 78 43 130 70 437 229 543 282 558 282 6 0 12 4
14 9 2 4 68 41 148 81 199 100 436 224 570 298 25 13 74 40 110 60 36 20 103
58 150 86 47 27 100 56 118 65 17 8 32 19 32 23 0 4 6 8 13 8 8 0 22 9 32 20
10 11 22 20 27 20 5 0 29 14 53 30 24 17 48 30 53 30 6 0 12 3 14 8 2 4 36 29
77 56 40 27 78 55 85 61 6 7 21 17 32 23 18 9 107 77 210 160 250 200 465 453
596 702 41 79 94 204 103 245 1 6 10 32 19 58 9 26 16 58 16 71 0 12 3 26 7
30 4 4 8 17 9 29 0 12 4 40 9 62 4 22 9 54 11 70 6 46 6 325 0 365 -6 39 -19
132 -21 140 0 3 -5 12 -10 21 -7 13 -13 14 -20 5z"/>
<path d="M33 5163 c0 -16 -3 -53 -7 -83 -3 -30 -9 -82 -13 -115 -9 -72 -8
-284 1 -340 4 -22 9 -53 11 -70 2 -16 6 -39 9 -50 2 -11 9 -41 15 -66 29 -129
144 -393 202 -467 10 -14 19 -30 19 -38 0 -7 4 -14 8 -16 4 -1 23 -25 42 -53
19 -27 37 -52 40 -55 3 -3 25 -30 49 -60 50 -61 253 -265 322 -322 167 -139
369 -288 389 -288 5 0 10 -4 10 -10 0 -5 16 -17 35 -26 19 -9 35 -20 35 -25 0
-5 6 -9 13 -9 7 0 31 -13 53 -30 21 -16 44 -30 51 -30 6 0 13 -3 15 -8 2 -4
37 -27 78 -51 41 -24 95 -56 120 -71 25 -15 70 -41 100 -58 30 -16 73 -40 95
-52 38 -21 66 -37 270 -145 44 -23 188 -98 320 -165 515 -263 739 -379 855
-443 30 -17 64 -35 75 -41 11 -6 28 -17 38 -25 9 -8 17 -11 17 -7 0 4 12 -1
28 -12 15 -11 50 -32 77 -46 28 -15 57 -31 65 -36 8 -5 62 -37 120 -71 133
-78 424 -268 428 -280 2 -5 10 -9 17 -9 7 0 15 -4 17 -8 1 -5 24 -23 50 -40
25 -18 52 -38 60 -45 7 -7 31 -26 53 -42 22 -16 47 -36 56 -45 8 -8 34 -30 57
-48 61 -50 286 -262 278 -262 -2 0 13 -17 33 -38 20 -21 52 -57 71 -81 19 -24
40 -48 45 -55 6 -6 24 -31 40 -55 l30 -44 5 28 c13 73 1 570 -15 638 -3 12 -7
36 -9 52 -3 17 -8 44 -12 60 -3 17 -7 37 -8 45 -1 9 -4 20 -8 25 -3 6 -9 24
-13 40 -12 44 -12 45 -15 50 -1 3 -3 8 -5 13 -2 7 -11 32 -25 67 -26 66 -111
230 -153 295 -90 136 -166 228 -292 355 -74 73 -111 107 -203 187 -73 64 -294
225 -426 310 -188 123 -179 117 -196 125 -8 4 -17 9 -20 12 -3 3 -14 11 -25
17 -11 6 -83 47 -160 91 -225 129 -474 259 -1065 559 -85 44 -157 81 -160 84
-3 3 -48 27 -100 53 -105 53 -224 115 -315 166 -33 19 -85 47 -115 63 -30 16
-59 33 -65 37 -5 5 -35 22 -65 38 -117 64 -376 225 -457 285 -29 21 -55 38
-58 38 -3 0 -18 11 -33 25 -15 14 -31 25 -35 25 -5 0 -14 6 -21 13 -7 6 -25
21 -40 32 -42 30 -148 113 -190 148 -106 89 -301 279 -360 350 -17 22 -38 47
-46 57 -8 9 -26 31 -39 49 -30 38 -47 40 -48 4z"/>
</g>
</svg>
