<?xml version="1.0" encoding="utf-8"?><!DOCTYPE svg PUBLIC "-//W3C//DTD SVG 1.1//EN" "http://www.w3.org/Graphics/SVG/1.1/DTD/svg11.dtd"><svg xmlns="http://www.w3.org/2000/svg" xmlns:xlink="http://www.w3.org/1999/xlink"><symbol viewBox="-1 -1 38 38" id="email_icon"><defs><path id="aa" d="M.327.328h35.345v35.345H.327z"/></defs><clipPath id="ab"><use xlink:href="#aa" overflow="visible"/></clipPath><path clip-path="url(#ab)" d="M11.373 21.591c-1.017 1.119-2.13 2.364-1.933 3.037h17.397c-1.182-1.951-3.919-4.734-6.075-6.627-.704 1.045-1.88 1.616-2.762 2.484-1.037-.805-1.9-1.781-3.037-2.484-.892 1.394-2.433 2.314-3.59 3.59m10.492-4.143c2.112 1.217 4.417 5.777 6.075 5.523-.183-3.499.367-7.731-.276-10.769-1.734 1.945-4.125 3.238-5.799 5.246M8.059 23.247c2.016-.933 4.091-4.193 6.076-6.075-2.099-1.584-3.921-3.443-6.076-4.97v11.045zm9.665-4.694c1.572-.798 3.366-2.247 4.971-3.59 1.301-1.088 3.843-3.114 3.589-3.865-5.615.183-11.965-.369-17.12.275 2.933 2.314 5.758 4.734 8.56 7.18M15.791.328h4.418c8.6 1.71 13.754 6.864 15.464 15.463v4.419c-1.71 8.599-6.864 13.753-15.464 15.463h-4.418C7.191 33.963 2.037 28.809.328 20.21v-4.419C2.037 7.192 7.191 2.038 15.791.328"/></symbol><symbol viewBox="-1 -1 38 38" id="facebook_icon"><defs><path id="ba" d="M.328.328h35.345v35.345H.328z"/></defs><clipPath id="bb"><use xlink:href="#ba" overflow="visible"/></clipPath><path clip-path="url(#bb)" d="M15.239 14.135H13.03v3.866c.66.167 2.003-.347 2.209.275V28.77h4.418V18.001h3.038c-.125-1.506.492-2.271.275-3.866-1.021-.176-2.75.357-3.313-.277.04-1.065-.216-2.424.553-2.76h2.761V7.231c-5.566-.688-8.633 1.123-7.732 6.904M15.792.328h4.418c8.6 1.71 13.754 6.864 15.464 15.463v4.419c-1.71 8.599-6.864 13.753-15.464 15.463h-4.418C7.192 33.963 2.038 28.809.329 20.21v-4.419C2.038 7.192 7.192 2.038 15.792.328"/></symbol><symbol viewBox="-1 -1 160 128" id="header_logo"><defs><path id="ca" d="M1-.032h157.06V125H1z"/></defs><clipPath id="cb"><use xlink:href="#ca" overflow="visible"/></clipPath><path clip-path="url(#cb)" d="M120.721 53.461l12.166 23.876v11.964h9.793V77.439l12.368-23.978h-10.702l-6.562 15.497-6.41-15.497h-10.653zm-22.513 8.582h5.956c.605 0 1.212.328 1.817.984s.908 1.607.908 2.852c0 1.212-.261 2.154-.782 2.827-.521.674-1.086 1.01-1.69 1.01h-6.209v-7.673zm0 27.259V78.297h3.685l6.311 11.005h11.104l-7.572-13.175a11.877 11.877 0 0 0 3.786-4.417c.909-1.8 1.363-3.744 1.363-5.831 0-1.514-.303-3.02-.908-4.518a13.177 13.177 0 0 0-2.499-3.988c-1.06-1.161-2.331-2.103-3.811-2.827-1.482-.723-3.098-1.085-4.848-1.085H88.363v35.84h9.845zM61.357 75.724l3.332-11.106 3.18 11.106h-6.512zM47.728 89.302h10.045l2.12-7.017h9.541l2.171 7.017H81.6l-12.418-35.84h-8.986l-12.468 35.84zm-6.764 0v-35.84H30.262l-7.774 16.86-7.723-16.86H4.013v35.84h9.843v-18.88l6.007 13.277h5.25l6.007-13.277v18.88h9.844zM150.484 124.735h4.563v-20.904h-5.741v10.629l-8.392-10.629h-4.475v20.904h5.741V114.46l8.304 10.275zm-31.606-12.439a5.331 5.331 0 0 1 .868-1.767 4.387 4.387 0 0 1 1.487-1.251c.599-.314 1.31-.472 2.135-.472.805 0 1.506.152 2.105.456a4.564 4.564 0 0 1 1.501 1.207 5.05 5.05 0 0 1 .897 1.737c.196.658.295 1.34.295 2.047 0 .688-.094 1.364-.279 2.031a5.476 5.476 0 0 1-.854 1.781 4.348 4.348 0 0 1-1.486 1.266c-.608.324-1.324.486-2.149.486-.824 0-1.536-.157-2.134-.472a4.433 4.433 0 0 1-1.487-1.235 5.366 5.366 0 0 1-.884-1.752 7.338 7.338 0 0 1-.015-4.062m8.744 11.732a10.833 10.833 0 0 0 3.371-2.34 10.74 10.74 0 0 0 2.208-3.357c.53-1.266.795-2.585.795-3.96 0-1.334-.25-2.639-.751-3.915a10.832 10.832 0 0 0-2.134-3.416 10.611 10.611 0 0 0-3.327-2.414c-1.295-.608-2.737-.913-4.328-.913-1.551 0-2.979.29-4.283.869a10.828 10.828 0 0 0-3.387 2.326 10.562 10.562 0 0 0-2.223 3.371 10.278 10.278 0 0 0-.794 3.975c0 1.354.254 2.669.765 3.945a10.852 10.852 0 0 0 2.149 3.399 10.7 10.7 0 0 0 3.327 2.4c1.296.609 2.737.913 4.328.913 1.552.001 2.978-.294 4.284-.883m-16.736-18.106a42.627 42.627 0 0 0-1.591-.751 20.37 20.37 0 0 0-1.898-.736 18.191 18.191 0 0 0-2.105-.56 11.262 11.262 0 0 0-2.237-.221 9.452 9.452 0 0 0-2.959.457 7.696 7.696 0 0 0-2.488 1.339 6.288 6.288 0 0 0-1.722 2.209c-.423.883-.634 1.904-.634 3.062 0 .766.104 1.442.31 2.031s.524 1.114.957 1.575c.431.462.98.874 1.648 1.237.667.362 1.462.701 2.385 1.016.628.216 1.222.402 1.781.559.56.157 1.056.314 1.486.472.432.156.771.339 1.016.545.245.206.368.456.368.75 0 .275-.123.496-.368.663-.244.167-.682.25-1.31.25a8.494 8.494 0 0 1-2.429-.354 15.351 15.351 0 0 1-2.135-.795 17.398 17.398 0 0 1-2.149-1.147l-2.473 5.033c.628.373 1.31.707 2.046 1.001a20.826 20.826 0 0 0 4.695 1.267c.806.118 1.59.177 2.356.177.961 0 1.918-.113 2.87-.339s1.806-.593 2.562-1.104a5.662 5.662 0 0 0 1.825-2.046c.461-.854.692-1.909.692-3.165 0-.98-.147-1.814-.442-2.502a4.807 4.807 0 0 0-1.266-1.752c-.55-.48-1.212-.897-1.987-1.252a21.428 21.428 0 0 0-2.606-.971 51.582 51.582 0 0 0-1.634-.501 9.42 9.42 0 0 1-1.221-.427c-.334-.147-.589-.31-.766-.485a.913.913 0 0 1-.266-.678c0-.372.152-.638.456-.794.305-.157.712-.236 1.222-.236.628 0 1.271.103 1.93.309.656.206 1.251.428 1.78.663.629.275 1.237.588 1.825.942l2.476-4.741zm-29.266 2.914h3.475c.353 0 .706.192 1.06.574.354.383.53.938.53 1.664 0 .707-.153 1.256-.457 1.648-.304.394-.633.588-.986.588H81.62v-4.474zm0 15.899v-6.418h2.149l3.68 6.418h6.478l-4.416-7.685a6.928 6.928 0 0 0 2.208-2.577 7.446 7.446 0 0 0 .795-3.399c0-.883-.178-1.763-.53-2.635a7.702 7.702 0 0 0-1.457-2.326 7.324 7.324 0 0 0-2.223-1.649 6.356 6.356 0 0 0-2.827-.633h-9.598v20.904h5.741zm-17.577-5.005v-3.299h7.596v-4.65h-7.596v-2.945h8.892v-5.005H58.302v20.904H73.2v-5.005h-9.157zm-7.831-15.899H38.429v5.005h6.035v15.899h5.742v-15.899h6.006v-5.005zM28.095 119.73v-3.299h7.596v-4.65h-7.596v-2.945h8.891v-5.005H22.354v20.904h14.897v-5.005h-9.156zM9.753 108.836h2.885c.354 0 .707.158 1.06.471.354.315.53.903.53 1.768 0 .844-.152 1.428-.456 1.752-.305.324-.633.484-.986.484H9.753v-4.475zm0 15.899v-6.418h3.415c1.021 0 1.958-.201 2.812-.604a6.644 6.644 0 0 0 2.179-1.619c.598-.677 1.064-1.453 1.398-2.326s.501-1.771.501-2.693c0-.883-.177-1.763-.53-2.635a7.705 7.705 0 0 0-1.458-2.326 7.308 7.308 0 0 0-2.222-1.649 6.356 6.356 0 0 0-2.827-.633H4.012v20.904h5.741z"/><path clip-path="url(#cb)" fill="none" stroke="#000" stroke-width="5" d="M1 96.479h157.06"/><path clip-path="url(#cb)" d="M79.53-.032c-.208.446-.441.878-.698 1.296-.538.957-.878 1.797-.444 2.667.437.627.821 1.282 1.142 1.971.321-.689.705-1.344 1.142-1.971.435-.87.095-1.71-.443-2.667-.258-.418-.491-.85-.699-1.296M57.039 29.647c2.094 1.252 4.403 2.426 6.751 3.62 5.679 2.884 11.489 5.837 14.594 10.287v-2.64c0-7.537-7.587-11.391-15.619-15.47-3.455-1.755-6.956-3.536-9.869-5.663M48.17 27.704c0 7.536 7.587 11.39 15.619 15.47 5.679 2.885 11.489 5.838 14.594 10.288v-2.641c0-7.536-7.587-11.39-15.619-15.47-5.528-2.808-11.177-5.682-14.338-9.936M76.466 5.214a14.055 14.055 0 0 0-.209-.289c-.851 1.638-1.934 4.401-.557 5.926 1.025.92 1.934 1.906 2.683 2.981v-2.641c0-2.074-.577-3.869-1.579-5.468-.128-.17-.24-.34-.338-.509M74.042 12.461l-.002.002a.106.106 0 0 0-.01-.012c-1.144-1.008-2.463-1.94-3.898-2.828-.62 2.17-1.476 6.412.84 7.708v.001c2.998 1.826 5.643 3.874 7.411 6.407v-2.64c.001-3.566-1.699-6.307-4.341-8.638M60.638 14.45c-.237.695-.485 1.678-.495 2.775-.025 2.692 1.379 4.846 4.174 6.402 5.509 2.801 11.057 5.707 14.067 10.02v-2.641c0-5.208-3.625-8.657-8.515-11.638l-.002.004c-.071-.039-.134-.084-.202-.126-2.133-1.286-4.496-2.488-6.901-3.71-.708-.36-1.419-.722-2.126-1.086M80.677 50.821v2.64c3.105-4.45 8.915-7.402 14.594-10.287 8.032-4.08 15.619-7.934 15.619-15.47 0-.805-.091-1.565-.256-2.29-3.16 4.255-8.81 7.129-14.338 9.937-8.032 4.08-15.619 7.934-15.619 15.47M96.296 15.536c-2.404 1.221-4.768 2.423-6.9 3.709-.068.042-.131.087-.202.127l-.002-.004c-4.89 2.981-8.514 6.43-8.514 11.638v2.64c3.009-4.312 8.558-7.219 14.065-10.019 2.795-1.556 4.2-3.71 4.174-6.402-.01-1.097-.258-2.08-.495-2.775-.707.365-1.417.726-2.126 1.086M85.029 12.451l-.01.012-.002-.002c-2.641 2.331-4.341 5.072-4.341 8.638v2.64c1.768-2.533 4.413-4.581 7.411-6.407v-.001c2.315-1.296 1.46-5.538.84-7.707-1.435.888-2.753 1.819-3.898 2.827M96.296 25.443c-8.032 4.08-15.618 7.934-15.618 15.47v2.641c3.104-4.45 8.913-7.403 14.593-10.288 2.349-1.193 4.658-2.367 6.752-3.62l-.002-.002c4.593-3.067 4.558-7.521 4.145-9.863-2.915 2.127-6.416 3.907-9.87 5.662M82.595 5.214c-.099.169-.21.339-.339.509-1.001 1.599-1.579 3.394-1.579 5.468v2.641c.75-1.075 1.659-2.061 2.684-2.981 1.376-1.525.294-4.288-.557-5.926a9.144 9.144 0 0 0-.209.289"/></symbol><symbol viewBox="-1 -1 38 33" id="icon_footer"><defs><path id="da" d="M.327.296h35.345V31H.327z"/></defs><clipPath id="db"><use xlink:href="#da" overflow="visible"/></clipPath><path clip-path="url(#db)" d="M18 .296a7.534 7.534 0 0 1-.393.744c-.304.549-.495 1.031-.25 1.531.245.359.462.735.643 1.131.181-.396.396-.772.643-1.131.245-.5.054-.982-.25-1.531A7.534 7.534 0 0 1 18 .296M5.325 17.331c1.18.719 2.481 1.393 3.805 2.078 3.2 1.654 6.474 3.35 8.224 5.903v-1.515c0-4.326-4.276-6.538-8.802-8.88-1.947-1.007-3.92-2.029-5.562-3.25M.327 16.216c0 4.324 4.276 6.538 8.802 8.88 3.201 1.655 6.474 3.35 8.224 5.903v-1.515c0-4.326-4.275-6.538-8.802-8.88-3.115-1.611-6.299-3.261-8.08-5.703M16.273 3.307c-.038-.056-.078-.111-.118-.166-.479.94-1.09 2.526-.314 3.402a9.996 9.996 0 0 1 1.513 1.71V6.738a5.863 5.863 0 0 0-.89-3.139 2.696 2.696 0 0 1-.191-.292M14.907 7.467c-.003-.001-.005-.005-.007-.007-.644-.578-1.388-1.113-2.196-1.623-.35 1.245-.832 3.68.473 4.424v.001c1.689 1.048 3.18 2.223 4.176 3.677v-1.515c.001-2.047-.957-3.619-2.446-4.957M7.353 8.608a5.238 5.238 0 0 0-.279 1.593c-.014 1.545.777 2.782 2.352 3.675 3.105 1.607 6.232 3.274 7.928 5.751V18.11c0-2.989-2.043-4.969-4.799-6.68l-.001.002c-.04-.022-.076-.048-.114-.072-1.202-.738-2.533-1.428-3.889-2.129-.399-.206-.799-.413-1.198-.623M18.646 29.484v1.517c1.75-2.556 5.023-4.25 8.224-5.905 4.527-2.342 8.802-4.556 8.802-8.88 0-.462-.051-.898-.144-1.314-1.781 2.442-4.965 4.092-8.08 5.703-4.526 2.341-8.802 4.553-8.802 8.879M27.448 9.231c-1.354.701-2.687 1.391-3.889 2.129-.038.024-.074.05-.114.073l-.001-.003c-2.756 1.711-4.798 3.691-4.798 6.681v1.515c1.696-2.475 4.823-4.143 7.927-5.75 1.575-.893 2.366-2.129 2.353-3.675a5.28 5.28 0 0 0-.279-1.593c-.399.209-.799.416-1.199.623M21.099 7.46l-.006.007-.001-.001c-1.487 1.338-2.445 2.911-2.445 4.958v1.515c.995-1.454 2.486-2.629 4.176-3.677v-.001c1.306-.744.823-3.179.474-4.424-.81.511-1.553 1.045-2.198 1.623M27.448 14.918c-4.527 2.342-8.802 4.555-8.802 8.88v1.516c1.75-2.555 5.023-4.249 8.224-5.905 1.324-.685 2.625-1.358 3.806-2.077l-.001-.001c2.588-1.761 2.567-4.318 2.336-5.662-1.643 1.219-3.615 2.242-5.563 3.249M19.727 3.307a2.84 2.84 0 0 1-.19.292 5.863 5.863 0 0 0-.891 3.139v1.515c.423-.616.936-1.182 1.514-1.71.774-.876.165-2.462-.314-3.402-.041.055-.081.11-.119.166"/></symbol><symbol viewBox="-1 -1 65 56" id="icon_home_welcome"><defs><path id="ea" d="M0 .507h62.719V54H0z"/></defs><clipPath id="eb"><use xlink:href="#ea" overflow="visible"/></clipPath><path clip-path="url(#eb)" d="M31.359.507c-.207.446-.44.878-.697 1.296-.538.957-.878 1.797-.444 2.667.437.627.821 1.282 1.142 1.971.321-.689.705-1.344 1.143-1.971.434-.87.094-1.71-.444-2.667-.258-.418-.491-.85-.7-1.296M8.868 30.186c2.094 1.252 4.403 2.426 6.751 3.62 5.679 2.884 11.489 5.837 14.594 10.287v-2.64c0-7.537-7.587-11.392-15.619-15.47-3.455-1.755-6.956-3.536-9.869-5.663M0 28.242c0 7.536 7.587 11.391 15.619 15.47C21.298 46.598 27.108 49.551 30.213 54v-2.641c0-7.536-7.587-11.39-15.619-15.47C9.066 33.08 3.417 30.206.256 25.953M28.296 5.753a14.055 14.055 0 0 0-.209-.289c-.851 1.638-1.934 4.401-.557 5.926 1.025.92 1.934 1.906 2.683 2.981V11.73c0-2.074-.577-3.869-1.579-5.468-.128-.17-.24-.34-.338-.509M25.872 13l-.002.002a.106.106 0 0 0-.01-.012c-1.144-1.008-2.463-1.94-3.898-2.828-.62 2.17-1.476 6.412.84 7.708v.001c2.998 1.826 5.643 3.874 7.411 6.407v-2.64c0-3.566-1.7-6.307-4.341-8.638M12.467 14.988c-.237.695-.485 1.678-.495 2.775-.025 2.692 1.379 4.846 4.174 6.402 5.509 2.801 11.057 5.707 14.067 10.02v-2.642c0-5.208-3.625-8.657-8.515-11.638l-.002.004c-.071-.039-.134-.084-.202-.126-2.133-1.286-4.496-2.488-6.901-3.71-.708-.359-1.419-.719-2.126-1.085M32.507 51.359V54c3.104-4.45 8.915-7.402 14.594-10.287 8.032-4.08 15.619-7.935 15.619-15.47 0-.806-.091-1.565-.256-2.291-3.16 4.255-8.811 7.129-14.338 9.937-8.032 4.081-15.619 7.934-15.619 15.47M48.126 16.075c-2.405 1.221-4.768 2.423-6.901 3.709-.067.042-.131.087-.201.127l-.002-.004c-4.891 2.981-8.515 6.43-8.515 11.638v2.64c3.009-4.312 8.559-7.219 14.066-10.019 2.795-1.556 4.2-3.71 4.174-6.402-.01-1.097-.258-2.08-.495-2.775-.707.365-1.417.726-2.126 1.086M36.859 12.99l-.01.012-.001-.002c-2.642 2.331-4.342 5.072-4.342 8.638v2.64c1.769-2.533 4.413-4.581 7.411-6.407v-.001c2.316-1.296 1.46-5.538.84-7.707-1.435.888-2.754 1.818-3.898 2.827M48.126 25.982c-8.033 4.08-15.619 7.934-15.619 15.47v2.641c3.105-4.449 8.914-7.402 14.593-10.287 2.35-1.193 4.658-2.367 6.752-3.62l-.002-.002c4.594-3.067 4.559-7.521 4.146-9.863-2.915 2.125-6.416 3.906-9.87 5.661M34.424 5.753a4.94 4.94 0 0 1-.339.509c-1.001 1.599-1.579 3.394-1.579 5.468v2.641c.75-1.075 1.659-2.061 2.685-2.981 1.376-1.525.294-4.288-.558-5.926-.071.096-.141.192-.209.289"/></symbol><symbol viewBox="-1 -1 65 56" id="icon_home_welcome_white"><defs><path id="fa" d="M0 .507h62.719V54H0z"/></defs><clipPath id="fb"><use xlink:href="#fa" overflow="visible"/></clipPath><path clip-path="url(#fb)" fill="#FFF" d="M31.36.507c-.208.446-.441.878-.698 1.296-.538.957-.878 1.797-.444 2.667.437.627.821 1.282 1.142 1.971.321-.689.705-1.344 1.142-1.971.434-.87.094-1.71-.444-2.667-.257-.418-.49-.85-.698-1.296M8.868 30.186c2.094 1.252 4.403 2.426 6.751 3.62 5.679 2.884 11.489 5.837 14.594 10.287v-2.641c0-7.536-7.587-11.391-15.619-15.47-3.455-1.755-6.956-3.536-9.869-5.663M0 28.242c0 7.536 7.587 11.39 15.619 15.47C21.298 46.598 27.108 49.551 30.213 54v-2.641c0-7.536-7.587-11.39-15.619-15.47C9.066 33.08 3.417 30.206.256 25.952M28.296 5.753a14.055 14.055 0 0 0-.209-.289c-.851 1.638-1.934 4.401-.557 5.926 1.025.92 1.934 1.906 2.683 2.981V11.73c0-2.074-.577-3.869-1.579-5.468-.128-.17-.24-.34-.338-.509M25.872 13l-.002.002a.106.106 0 0 0-.01-.012c-1.144-1.008-2.463-1.94-3.898-2.828-.62 2.17-1.476 6.412.84 7.708v.001c2.998 1.826 5.643 3.874 7.411 6.407v-2.64c0-3.566-1.7-6.307-4.341-8.638M12.467 14.988c-.237.695-.485 1.678-.495 2.775-.025 2.692 1.379 4.846 4.174 6.402 5.509 2.801 11.057 5.707 14.067 10.02v-2.642c0-5.208-3.625-8.657-8.515-11.638l-.002.004c-.071-.039-.134-.084-.202-.126-2.133-1.286-4.496-2.488-6.901-3.71-.708-.359-1.419-.719-2.126-1.085M32.507 51.359V54c3.104-4.45 8.915-7.402 14.594-10.287 8.032-4.08 15.619-7.935 15.619-15.471 0-.805-.091-1.564-.256-2.29-3.16 4.255-8.811 7.129-14.338 9.937-8.032 4.081-15.619 7.934-15.619 15.47M48.126 16.075c-2.405 1.221-4.768 2.423-6.901 3.709-.067.042-.131.087-.201.127l-.002-.004c-4.891 2.981-8.515 6.43-8.515 11.638v2.64c3.009-4.312 8.559-7.219 14.066-10.019 2.795-1.556 4.2-3.71 4.174-6.402-.01-1.097-.258-2.08-.495-2.775-.707.365-1.417.726-2.126 1.086M36.859 12.99l-.01.012-.001-.002c-2.642 2.331-4.342 5.072-4.342 8.638v2.64c1.769-2.533 4.413-4.581 7.411-6.407v-.001c2.316-1.296 1.46-5.538.84-7.707-1.435.888-2.754 1.818-3.898 2.827M48.126 25.982c-8.033 4.081-15.619 7.934-15.619 15.47v2.641c3.105-4.449 8.914-7.402 14.593-10.288 2.35-1.192 4.658-2.366 6.752-3.619l-.002-.003c4.594-3.066 4.559-7.521 4.146-9.862-2.915 2.125-6.416 3.906-9.87 5.661M34.424 5.753a4.94 4.94 0 0 1-.339.509c-1.001 1.599-1.579 3.394-1.579 5.468v2.641c.75-1.075 1.659-2.061 2.685-2.981 1.376-1.525.294-4.288-.558-5.926-.071.096-.141.192-.209.289"/></symbol><symbol viewBox="-1 -1 67.92 55.64" id="icon_logo_blk"><title>Asset 2</title><path d="M15.338 25.543a77.817 77.817 0 0 1-10.372-5.677 9.194 9.194 0 0 0 4.355 9.89l-.001.002c2.2 1.255 4.627 2.433 7.095 3.63 5.969 2.892 12.075 5.852 15.338 10.314v-2.648c0-7.555-7.974-11.42-16.415-15.51zM16.969 23.722c5.79 2.808 11.621 5.722 14.784 10.046v-2.647c0-5.223-3.809-8.68-8.949-11.67l-.002.005c-.074-.04-.14-.085-.212-.127-2.242-1.29-4.725-2.495-7.252-3.72q-1.117-.541-2.235-1.089a8.643 8.643 0 0 0-.52 2.783c-.027 2.7 1.45 4.859 4.386 6.419zM23.965 17.41a25.022 25.022 0 0 1 7.788 6.425v-2.648c0-3.575-1.786-6.323-4.562-8.66h-.002l-.01-.011a30.307 30.307 0 0 0-4.097-2.835c-.652 2.175-1.551 6.429.883 7.728zM31.753 13.9v-2.647a9.755 9.755 0 0 0-1.66-5.482 4.956 4.956 0 0 1-.355-.51 13.24 13.24 0 0 0-.22-.29c-.894 1.642-2.032 4.412-.585 5.942a17.8 17.8 0 0 1 2.82 2.988zM15.338 35.477C9.528 32.66 3.59 29.78.268 25.514A9.898 9.898 0 0 0 0 27.809c0 7.556 7.974 11.42 16.415 15.512 5.969 2.893 12.075 5.853 15.338 10.315v-2.647c0-7.557-7.974-11.421-16.415-15.512zM33.692 1.3A12.742 12.742 0 0 1 32.96 0a12.627 12.627 0 0 1-.734 1.3c-.565.96-.923 1.801-.466 2.674a13.074 13.074 0 0 1 1.2 1.976 13.066 13.066 0 0 1 1.2-1.976c.456-.873.099-1.714-.467-2.674zM34.164 13.9a17.797 17.797 0 0 1 2.82-2.987c1.447-1.53.31-4.3-.585-5.943-.075.097-.149.193-.22.29a4.986 4.986 0 0 1-.356.511 9.757 9.757 0 0 0-1.66 5.482zM34.164 41.055v2.647c3.264-4.462 9.37-7.422 15.338-10.315 2.468-1.196 4.895-2.373 7.095-3.629l-.001-.002a9.195 9.195 0 0 0 4.356-9.89 77.83 77.83 0 0 1-10.372 5.677c-8.442 4.091-16.416 7.955-16.416 15.512zM34.164 23.835a25.023 25.023 0 0 1 7.788-6.425c2.435-1.3 1.535-5.554.883-7.73a30.351 30.351 0 0 0-4.097 2.836l-.01.012-.002-.002c-2.775 2.338-4.562 5.086-4.562 8.661zM43.115 19.456l-.002-.005c-5.14 2.99-8.95 6.447-8.95 11.67v2.647c3.164-4.324 8.996-7.238 14.785-10.046 2.937-1.56 4.413-3.72 4.387-6.419a8.645 8.645 0 0 0-.52-2.783q-1.116.549-2.235 1.09c-2.528 1.224-5.011 2.43-7.253 3.719-.071.042-.137.087-.212.127zM65.65 25.514c-3.323 4.266-9.26 7.148-15.07 9.963-8.442 4.09-16.416 7.955-16.416 15.512v2.647c3.264-4.462 9.37-7.423 15.338-10.315 8.441-4.091 16.415-7.956 16.415-15.511a9.914 9.914 0 0 0-.268-2.296z"/></symbol><symbol viewBox="-1 -1 38 38" id="instagram_icon"><defs><path id="ha" d="M.328.328h35.344v35.345H.328z"/></defs><clipPath id="hb"><use xlink:href="#ha" overflow="visible"/></clipPath><path clip-path="url(#hb)" d="M10.269 9.993c-1.446 3.654-1.055 11.652-.277 15.739 3.705 1.332 12.313 1.332 16.016 0 .895-4.028.895-11.433 0-15.463-3.654-1.446-11.652-1.055-15.739-.276M15.791.328h4.418c8.6 1.71 13.754 6.864 15.465 15.463v4.419c-1.711 8.599-6.865 13.753-15.465 15.463h-4.418C7.192 33.963 2.037 28.809.328 20.21v-4.419C2.037 7.192 7.192 2.038 15.791.328"/><path clip-path="url(#hb)" d="M24.352 11.373c.438.781.438 3.085 0 3.866-1.094-.102-2.646.253-3.314-.276-1.198-2.455.23-4.513 3.314-3.59M17.448 14.963c1.716-.311 3.358.199 3.866 1.933 1.951 6.684-8.291 5.694-6.627 0 .169-.583.945-1.605 2.761-1.933"/><path clip-path="url(#hb)" d="M13.306 16.896c-2.45 7.941 11.601 8.121 9.39.276.293-.627 1.734-.105 2.484-.276-.184 2.668.469 6.176-.553 8.007-3.316.89-9.937.89-13.254 0-1.021-1.831-.368-5.339-.552-8.007h2.485z"/></symbol><symbol viewBox="-1 -1 38 38" id="pinterest_icon"><defs><path id="ia" d="M.328.671h35.345v34.658H.328z"/></defs><clipPath id="ib"><use xlink:href="#ia" overflow="visible"/></clipPath><path clip-path="url(#ib)" d="M26.561 14.751c-.757-6.656-10.582-8.289-14.911-3.52-2.02 2.225-3.678 7.439 1.381 9.477.736-2.331-.849-2.565-.829-4.604.063-6.425 10.757-7.675 11.321-1.083.21 2.455-.427 6.743-4.971 6.499-.081-.552-.747-.53-.829-1.083-.236-2.915 2.422-5.857-.276-7.31-3.447.104-2.256 2.985-2.485 5.685-.255 3.01-2.673 7.938-1.656 10.831 2.229-1.333 2.578-4.512 3.589-7.04 5.605 3.654 10.249-2.734 9.666-7.852M15.792.671h4.417c8.601 1.676 13.755 6.73 15.464 15.163v4.332c-1.709 8.433-6.863 13.487-15.464 15.163h-4.417c-8.6-1.676-13.755-6.73-15.464-15.163v-4.332C2.037 7.401 7.192 2.347 15.792.671"/></symbol></svg>